<svg id="Capa_1" data-name="Capa 1" xmlns="http://www.w3.org/2000/svg" xmlns:xlink="http://www.w3.org/1999/xlink" viewBox="0 0 668 678">
  <title>fondopc2</title>
  <g>
    <image width="566" height="651" transform="scale(1.18 1.04)" xlink:href="fondopc21.png"/>
    <image width="374" height="440" transform="translate(216 147) scale(1.2 1.2)" xlink:href="fondopc22.png"/>
    <g>
      <path d="M126.84,369.74a2.35,2.35,0,0,1,.72,1.78v23.34a2.25,2.25,0,0,1-.77,1.75,2.78,2.78,0,0,1-2,.71,2.65,2.65,0,0,1-1.84-.71,2.27,2.27,0,0,1-.76-1.75v-9.41H108.61v9.41a2.22,2.22,0,0,1-.81,1.75,2.79,2.79,0,0,1-1.88.71,2.66,2.66,0,0,1-1.9-.71,2.29,2.29,0,0,1-.74-1.75V371.52a2.29,2.29,0,0,1,.76-1.76,2.81,2.81,0,0,1,2-.7,2.6,2.6,0,0,1,1.83.7,2.3,2.3,0,0,1,.77,1.76v9.29h13.62v-9.29a2.24,2.24,0,0,1,.81-1.76,2.76,2.76,0,0,1,1.88-.7A2.73,2.73,0,0,1,126.84,369.74Z"/>
      <path d="M159.57,390.52a13.91,13.91,0,0,1-5.18,5.26,15.27,15.27,0,0,1-14.9,0,13.72,13.72,0,0,1-5.16-5.26,15.37,15.37,0,0,1,0-14.66,13.75,13.75,0,0,1,5.16-5.27,15.27,15.27,0,0,1,14.9,0,13.94,13.94,0,0,1,5.18,5.27,15.23,15.23,0,0,1,0,14.66Zm-4.82-12.24a9,9,0,0,0-3.2-3.49,9,9,0,0,0-9.24,0,8.68,8.68,0,0,0-3.16,3.49,11.3,11.3,0,0,0,0,9.85,8.71,8.71,0,0,0,3.16,3.5,8.58,8.58,0,0,0,4.63,1.27,8.4,8.4,0,0,0,4.61-1.3,9,9,0,0,0,3.2-3.49,11,11,0,0,0,0-9.81Z"/>
      <path d="M184.69,393.26a2.21,2.21,0,0,1,.75,1.72,2.13,2.13,0,0,1-.75,1.67,2.67,2.67,0,0,1-1.86.67H169a2.57,2.57,0,0,1-1.85-.71,2.3,2.3,0,0,1-.75-1.75V371.52a2.27,2.27,0,0,1,.77-1.76,2.77,2.77,0,0,1,2-.7,2.64,2.64,0,0,1,1.84.7,2.29,2.29,0,0,1,.76,1.76v21.07h11.14A2.72,2.72,0,0,1,184.69,393.26Z"/>
      <path d="M214,395.14a2.21,2.21,0,0,1-.72,1.71,2.42,2.42,0,0,1-3.06.23,3,3,0,0,1-1-1.21L207,391H194.31l-2.21,4.93a2.56,2.56,0,0,1-.92,1.19,2.34,2.34,0,0,1-1.35.42,2.32,2.32,0,0,1-1.68-.56,2,2,0,0,1-.58-1.54,2.44,2.44,0,0,1,.13-.77l10.63-24.14a2.64,2.64,0,0,1,1-1.25,2.35,2.35,0,0,1,1.54-.37,2.63,2.63,0,0,1,1.43.43,2.41,2.41,0,0,1,1,1.19l10.5,23.66A2.62,2.62,0,0,1,214,395.14Zm-17.58-8.8h8.53l-4.31-9.45Z"/>
      <path d="M223,399.34a8.71,8.71,0,0,1-1.87,2.46,3.55,3.55,0,0,1-2.39,1.05,2.64,2.64,0,0,1-1.5-.38,1.4,1.4,0,0,1-.55-1.24,1,1,0,0,1,.34-.9,2.15,2.15,0,0,1,.75-.39,4.74,4.74,0,0,0,.57-.2,1.81,1.81,0,0,0,1.2-1.61,1,1,0,0,0-.45-.79,1.88,1.88,0,0,0-1.18-.34,2.26,2.26,0,0,0-1.19.28,2,2,0,0,1-.79-.53,1.42,1.42,0,0,1-.28-1,2.26,2.26,0,0,1,.64-1.51,4.79,4.79,0,0,1,1.58-1.13,4.5,4.5,0,0,1,1.84-.42,3.88,3.88,0,0,1,2.94,1.11,4.39,4.39,0,0,1,1.07,3.17A5.42,5.42,0,0,1,223,399.34Z"/>
      <path d="M47.34,445.44A12.7,12.7,0,0,1,42.86,443a2.77,2.77,0,0,1-1.15-2.14,2.21,2.21,0,0,1,.72-1.63,2.44,2.44,0,0,1,1.75-.71,2.34,2.34,0,0,1,1.45.48A12.62,12.62,0,0,0,49,440.92a10.82,10.82,0,0,0,3.84.61,8,8,0,0,0,4.12-1,2.9,2.9,0,0,0,1.73-2.5,3.18,3.18,0,0,0-1.71-2.85,14.73,14.73,0,0,0-5.42-1.55q-9.35-1.31-9.34-8.24A7.14,7.14,0,0,1,43.59,421a8.75,8.75,0,0,1,3.84-2.87,14.22,14.22,0,0,1,5.42-1,16.39,16.39,0,0,1,5.06.77,12.37,12.37,0,0,1,3.94,2A2.65,2.65,0,0,1,63.09,422a2.21,2.21,0,0,1-.72,1.63,2.4,2.4,0,0,1-1.71.71,1.94,1.94,0,0,1-1.15-.36,11.42,11.42,0,0,0-3.1-1.56,10.75,10.75,0,0,0-3.56-.7,7.67,7.67,0,0,0-4.16.94,2.93,2.93,0,0,0,0,5.11,14.78,14.78,0,0,0,4.76,1.45,26.4,26.4,0,0,1,5.87,1.56,7.39,7.39,0,0,1,3.3,2.58,7.61,7.61,0,0,1,1.11,4.34,7,7,0,0,1-1.51,4.46,9.67,9.67,0,0,1-4,2.95,14.15,14.15,0,0,1-5.43,1A18.6,18.6,0,0,1,47.34,445.44Z"/>
      <path d="M94.29,439a13.82,13.82,0,0,1-5.19,5.27,15.26,15.26,0,0,1-14.89,0A13.7,13.7,0,0,1,69,439a15.43,15.43,0,0,1,0-14.65A13.77,13.77,0,0,1,74.21,419a15.26,15.26,0,0,1,14.89,0,13.89,13.89,0,0,1,5.19,5.27,15.21,15.21,0,0,1,0,14.65Zm-4.82-12.23a9,9,0,0,0-3.2-3.49,9,9,0,0,0-9.24,0,8.61,8.61,0,0,0-3.16,3.49,11.3,11.3,0,0,0,0,9.85,8.53,8.53,0,0,0,7.79,4.77,8.42,8.42,0,0,0,4.61-1.3,9,9,0,0,0,3.2-3.49,11,11,0,0,0,0-9.81Z"/>
      <path d="M121.09,421.38l-8.92,12.07v9.85a2.37,2.37,0,0,1-.72,1.76,2.44,2.44,0,0,1-1.75.71,2.57,2.57,0,0,1-1.82-.71,2.35,2.35,0,0,1-.74-1.76V432.89l-8.88-11.14a3.1,3.1,0,0,1-.77-1.9,2.16,2.16,0,0,1,.88-1.76,2.9,2.9,0,0,1,1.85-.71,2.61,2.61,0,0,1,2.09,1.13l7.52,9.82,7-9.73a2.62,2.62,0,0,1,2.13-1.22,2.57,2.57,0,0,1,1.8.73,2.37,2.37,0,0,1,.76,1.78A2.53,2.53,0,0,1,121.09,421.38Z"/>
      <path d="M161,443.59a2.21,2.21,0,0,1-.72,1.71,2.42,2.42,0,0,1-3.06.23,2.94,2.94,0,0,1-1-1.22L154,439.43H141.33l-2.22,4.92a2.54,2.54,0,0,1-.92,1.2,2.34,2.34,0,0,1-1.35.42,2.28,2.28,0,0,1-1.68-.57,2,2,0,0,1-.58-1.53,2.76,2.76,0,0,1,.13-.77L145.34,419a2.7,2.7,0,0,1,1-1.25,2.35,2.35,0,0,1,1.54-.37,2.63,2.63,0,0,1,1.43.43,2.41,2.41,0,0,1,1,1.19l10.5,23.66A2.62,2.62,0,0,1,161,443.59Zm-17.58-8.8H152l-4.31-9.45Z"/>
      <path d="M189,418.15a2.19,2.19,0,0,1,.64,1.62V443.3a2.32,2.32,0,0,1-.75,1.76,2.61,2.61,0,0,1-1.85.71,4,4,0,0,1-1.18-.18,1.71,1.71,0,0,1-.83-.51l-15.67-18.81v17.24a2.16,2.16,0,0,1-.66,1.61,2.36,2.36,0,0,1-1.73.65,2.25,2.25,0,0,1-1.66-.65,2.19,2.19,0,0,1-.64-1.61V420a2.32,2.32,0,0,1,.75-1.76,2.57,2.57,0,0,1,1.85-.7,3.44,3.44,0,0,1,1.26.24,2.1,2.1,0,0,1,.92.64L185,437.13V419.77a2.17,2.17,0,0,1,.66-1.62,2.3,2.3,0,0,1,1.68-.64A2.25,2.25,0,0,1,189,418.15Z"/>
      <path d="M219.86,431.21a2.38,2.38,0,0,1,.73,1.76v8.56a2.41,2.41,0,0,1-1.33,2.18,17.78,17.78,0,0,1-9.17,2.46,16,16,0,0,1-7.82-2,15,15,0,0,1-5.67-5.29,13.74,13.74,0,0,1,0-14.57,15.13,15.13,0,0,1,5.67-5.29,16,16,0,0,1,7.82-2,15.73,15.73,0,0,1,7.34,1.62,2.33,2.33,0,0,1,1,.84,2.21,2.21,0,0,1,.32,1.14,2.47,2.47,0,0,1-.71,1.75,2.27,2.27,0,0,1-1.73.75,3.74,3.74,0,0,1-1.4-.32,12.67,12.67,0,0,0-4.78-.93,10.11,10.11,0,0,0-8.69,4.84,9.43,9.43,0,0,0,0,9.69,10.15,10.15,0,0,0,8.69,4.85,18.27,18.27,0,0,0,2.56-.2,15.85,15.85,0,0,0,2.39-.53v-5.25h-4a2.66,2.66,0,0,1-1.85-.68,2.39,2.39,0,0,1,0-3.48,2.66,2.66,0,0,1,1.85-.68h7A2.53,2.53,0,0,1,219.86,431.21Z"/>
      <path d="M244.47,441.83a2.22,2.22,0,0,1,.74,1.64,2.1,2.1,0,0,1-.74,1.65,2.76,2.76,0,0,1-1.86.65h-14.3a2.62,2.62,0,0,1-1.86-.71,2.35,2.35,0,0,1-.74-1.76V420a2.35,2.35,0,0,1,.74-1.76,2.61,2.61,0,0,1,1.86-.7h14.3a2.71,2.71,0,0,1,1.86.66,2.23,2.23,0,0,1,.74,1.72,2,2,0,0,1-.72,1.63,2.77,2.77,0,0,1-1.88.63H231V429h9.65a2.63,2.63,0,0,1,1.85.67,2.17,2.17,0,0,1,.75,1.71,2.07,2.07,0,0,1-.72,1.64,2.77,2.77,0,0,1-1.88.63H231v7.47h11.57A2.61,2.61,0,0,1,244.47,441.83Z"/>
      <path d="M268.45,441.71a2.19,2.19,0,0,1,.75,1.72,2.13,2.13,0,0,1-.75,1.67,2.65,2.65,0,0,1-1.85.67H252.72a2.59,2.59,0,0,1-1.85-.71,2.32,2.32,0,0,1-.75-1.76V420a2.3,2.3,0,0,1,.77-1.76,2.79,2.79,0,0,1,2-.7,2.63,2.63,0,0,1,1.84.7,2.3,2.3,0,0,1,.77,1.76V441H266.6A2.7,2.7,0,0,1,268.45,441.71Z"/>
      <path d="M297.75,443.59a2.21,2.21,0,0,1-.72,1.71,2.38,2.38,0,0,1-1.67.67,2.34,2.34,0,0,1-1.38-.44,2.79,2.79,0,0,1-1-1.22l-2.22-4.88H278.08l-2.22,4.92a2.54,2.54,0,0,1-.92,1.2,2.34,2.34,0,0,1-1.34.42,2.29,2.29,0,0,1-1.69-.57,2,2,0,0,1-.58-1.53,2.76,2.76,0,0,1,.13-.77L282.09,419a2.7,2.7,0,0,1,1-1.25,2.35,2.35,0,0,1,1.54-.37,2.63,2.63,0,0,1,1.43.43,2.41,2.41,0,0,1,1,1.19l10.5,23.66A2.62,2.62,0,0,1,297.75,443.59Zm-17.58-8.8h8.53l-4.31-9.45Z"/>
    </g>
    <rect id="_Sector_" data-name="&lt;Sector&gt;" width="665" height="678" style="fill: none"/>
  </g>
</svg>
