<svg xmlns="http://www.w3.org/2000/svg" viewBox="0 0 133.7 126.38">
  <title>Recurso 17</title>
  <g id="Capa_2" data-name="Capa 2">
    <g id="trazo">
      <rect x="0.5" y="0.5" width="132.7" height="125.38" style="fill: #f9f9f9;stroke: #000;stroke-miterlimit: 10;opacity: 0.5700000000000001"/>
      <g>
        <path d="M69.91,36.65c12.86.79,8.06,10,9.42,16.45,7.21,2.92,17.61-3.49,22.5,7.41-11,15.64-26.64,25-45.44,29.56C50,91.62,43.32,92.18,36.74,92.85c-5.82.6-9.85-2-10.91-7.74-.87-4.72,3-9,9-9.52,12-1,18.72-8.27,23.8-17.82C62.36,50.68,65.24,43.1,69.91,36.65Z" style="fill: #6c884c"/>
        <path d="M71.2,32c8.55-4.81,15.09-5.25,22.1-2.71a10.15,10.15,0,0,0,1.16-9.06c-1.35-4,1.34-5.57,4-8,4.74,5.06,5.52,10.7,3.33,16.28-1.54,3.95-.78,6.28,1.75,9.43,4.22,5.27,5.25,11.55,3.46,20.65-5.54-10.35-13.7-10.78-23.2-9.64C85.58,39.87,83.08,33.52,71.2,32Z" style="fill: #6c884c"/>
      </g>
      <g>
        <path d="M44.35,109.63H42.47v3a.85.85,0,0,1-1.69,0V104.4a.81.81,0,0,1,.84-.77h2.73a3,3,0,1,1,0,6Zm-1.88-1.56h1.88a1.45,1.45,0,1,0,0-2.88H42.47Z" style="fill: #6c884c"/>
        <path d="M51.18,104.68a.79.79,0,0,1-.82.77.8.8,0,0,1-.83-.77v-.29a.8.8,0,0,1,.83-.76.78.78,0,0,1,.82.76Zm0,2.54v5.46a.78.78,0,0,1-.82.76.8.8,0,0,1-.83-.76v-5.46a.79.79,0,0,1,.83-.77A.77.77,0,0,1,51.18,107.22Z" style="fill: #6c884c"/>
        <path d="M53.27,110a3.74,3.74,0,0,1,3.88-3.52,4.28,4.28,0,0,1,2.43.77.74.74,0,0,1,.17,1,.87.87,0,0,1-1.15.14,2.52,2.52,0,0,0-1.45-.45,2,2,0,1,0,0,4,2.57,2.57,0,0,0,1.45-.45.9.9,0,0,1,1.15.16.73.73,0,0,1-.17,1,4.42,4.42,0,0,1-2.43.75A3.73,3.73,0,0,1,53.27,110Z" style="fill: #6c884c"/>
        <path d="M69,110v2.74a.79.79,0,0,1-.81.75.81.81,0,0,1-.79-.61,3.68,3.68,0,0,1-2,.61,3.73,3.73,0,0,1-2.6-1,3.44,3.44,0,0,1,0-4.93,3.7,3.7,0,0,1,4.63-.43.81.81,0,0,1,.79-.62.79.79,0,0,1,.81.76Zm-1.62,0a2,2,0,0,0-2-2,1.91,1.91,0,0,0-1.42.58,1.94,1.94,0,0,0-.59,1.44,2,2,0,0,0,.59,1.44,2,2,0,0,0,1.42.55,2.08,2.08,0,0,0,1.42-.55A2,2,0,0,0,67.37,110Z" style="fill: #6c884c"/>
        <path d="M78.2,109.35v3.34a.77.77,0,0,1-.79.75.8.8,0,0,1-.81-.75v-3.34A1.51,1.51,0,0,0,75,107.93a1.47,1.47,0,0,0-1.53,1.42v3.34a.24.24,0,0,1,0,.14.82.82,0,0,1-.81.61.78.78,0,0,1-.81-.75v-5.51a.78.78,0,0,1,.81-.75.84.84,0,0,1,.75.44,3.21,3.21,0,0,1,1.62-.44A3.07,3.07,0,0,1,78.2,109.35Z" style="fill: #6c884c"/>
        <path d="M84.63,107.2a.82.82,0,0,1-.85.77H83.4v3.91a.81.81,0,0,1,.84.79.8.8,0,0,1-.84.77,1.63,1.63,0,0,1-1.7-1.56V108h-.44a.77.77,0,1,1,0-1.54h.44v-2a.81.81,0,0,1,.86-.77.8.8,0,0,1,.84.77v2h.38A.82.82,0,0,1,84.63,107.2Z" style="fill: #6c884c"/>
        <path d="M86.16,109.94a3.63,3.63,0,0,1,3.73-3.51,3.53,3.53,0,0,1,3.68,3.25v.07a.3.3,0,0,1,0,.13.71.71,0,0,1-.79.56H87.9a1.81,1.81,0,0,0,.52.92,2.42,2.42,0,0,0,1.47.63,2.61,2.61,0,0,0,1.59-.35.93.93,0,0,1,1.14,0,.6.6,0,0,1,0,.91,4.07,4.07,0,0,1-2.73.93A3.64,3.64,0,0,1,86.16,109.94Zm1.67-.69h4.32a2.49,2.49,0,0,0-2.26-1.49A2.09,2.09,0,0,0,87.83,109.25Z" style="fill: #6c884c"/>
      </g>
    </g>
  </g>
</svg>
