<svg xmlns="http://www.w3.org/2000/svg" viewBox="0 0 133.7 126.38">
  <title>Recurso 19</title>
  <g id="Capa_2" data-name="Capa 2">
    <g id="trazo">
      <rect x="0.5" y="0.5" width="132.7" height="125.38" style="fill: #f9f9f9;stroke: #000;stroke-miterlimit: 10;opacity: 0.5700000000000001"/>
      <g>
        <path d="M62.16,63.72c-22.54-7-31.88-18.08-31.5-36.63,22.51-4.67,40.46,11.82,40.89,37.62.11,6.46-.1,12.92.06,19.38.08,3.7-1.41,4.82-4.41,4.8s-5.18-.44-5.08-4.78C62.28,77.25,62.16,70.38,62.16,63.72Z" style="fill: #6c884c"/>
        <path d="M103.05,16.63C103.3,34.91,92.18,49,75,52,72.85,46.73,71,41.09,67.58,36.52c-2-2.61.15-4.32,1.29-6C77.72,17.84,89.51,14.49,103.05,16.63Z" style="fill: #6c884c"/>
      </g>
      <g>
        <path d="M47.92,113.82H46.2v3a.78.78,0,0,1-1.55,0V108.6a.77.77,0,0,1,.77-.77h2.5a3,3,0,1,1,0,6Zm-1.72-1.55h1.72a1.45,1.45,0,1,0,0-2.89H46.2Z" style="fill: #6c884c"/>
        <path d="M53.52,107.83a.78.78,0,0,1,.79.77v8.26a.78.78,0,0,1-1.56,0V108.6A.78.78,0,0,1,53.52,107.83Z" style="fill: #6c884c"/>
        <path d="M62.07,114.15v2.74a.74.74,0,0,1-1.47.14,3.21,3.21,0,0,1-1.87.6,3.25,3.25,0,0,1-2.38-1,3.67,3.67,0,0,1,0-4.93,3.18,3.18,0,0,1,4.25-.43.74.74,0,0,1,1.47.14Zm-1.49,0A2.06,2.06,0,0,0,60,112.7a1.74,1.74,0,0,0-1.3-.57,1.71,1.71,0,0,0-1.3.57,2,2,0,0,0-.53,1.45,2.07,2.07,0,0,0,.53,1.44,1.77,1.77,0,0,0,1.3.55,1.8,1.8,0,0,0,1.3-.55A2.09,2.09,0,0,0,60.58,114.15Z" style="fill: #6c884c"/>
        <path d="M70.51,113.54v3.35a.73.73,0,0,1-.73.74.75.75,0,0,1-.74-.74v-3.35a1.44,1.44,0,0,0-1.46-1.41,1.4,1.4,0,0,0-1.4,1.41v3.35a.25.25,0,0,1,0,.14.76.76,0,0,1-.74.6.73.73,0,0,1-.74-.74v-5.52a.74.74,0,0,1,.74-.74.77.77,0,0,1,.69.44,2.74,2.74,0,0,1,1.48-.44A2.94,2.94,0,0,1,70.51,113.54Z" style="fill: #6c884c"/>
        <path d="M76.4,111.4a.79.79,0,0,1-.78.77h-.35v3.91a.77.77,0,0,1,.77.78.76.76,0,0,1-.77.77,1.56,1.56,0,0,1-1.56-1.55v-3.91H73.3a.77.77,0,0,1,0-1.54h.41v-2a.78.78,0,0,1,1.56,0v2h.35A.78.78,0,0,1,76.4,111.4Z" style="fill: #6c884c"/>
        <path d="M84.35,114.15v2.74a.74.74,0,0,1-.74.74.77.77,0,0,1-.73-.6,3.15,3.15,0,0,1-1.86.6,3.25,3.25,0,0,1-2.38-1,3.67,3.67,0,0,1,0-4.93A3.24,3.24,0,0,1,81,110.63a3.17,3.17,0,0,1,1.86.62.78.78,0,0,1,.73-.62.75.75,0,0,1,.74.76Zm-1.48,0a2.06,2.06,0,0,0-.55-1.45,1.74,1.74,0,0,0-1.3-.57,1.71,1.71,0,0,0-1.3.57,2.05,2.05,0,0,0-.54,1.45,2.08,2.08,0,0,0,.54,1.44,1.77,1.77,0,0,0,1.3.55,1.8,1.8,0,0,0,1.3-.55A2.09,2.09,0,0,0,82.87,114.15Z" style="fill: #6c884c"/>
        <path d="M91.41,111.37a.75.75,0,0,1-.74.75,1.32,1.32,0,0,0-.84.26,2.19,2.19,0,0,0-.65.67,4.57,4.57,0,0,0-.57,1.18v2.66a.76.76,0,0,1-.77.74.75.75,0,0,1-.75-.74v-5.52a.74.74,0,0,1,.75-.73.76.76,0,0,1,.77.73v.1a1.53,1.53,0,0,1,.29-.28,3.1,3.1,0,0,1,1.77-.55A.73.73,0,0,1,91.41,111.37Z" style="fill: #6c884c"/>
      </g>
    </g>
  </g>
</svg>
