<svg xmlns="http://www.w3.org/2000/svg" viewBox="0 0 133.7 126.38">
  <title>Recurso 24</title>
  <g id="Capa_2" data-name="Capa 2">
    <g id="trazo">
      <g>
        <rect x="0.5" y="0.5" width="132.7" height="125.38" style="fill: #f9f9f9;stroke: #000;stroke-miterlimit: 10;opacity: 0.5700000000000001"/>
        <path d="M69.72,18.48C89.35,18.1,106.33,34,107.27,53.57c.31,6.58-3,10.6-9.56,11.18-3.67.33-7.41,0-11.1.23-7.57.49-11.31,5.91-9.23,13.13,3,10.39-2,16-12.71,14.29C45.55,89.35,31.93,71.85,33.26,52,34.49,33.74,50.68,18.84,69.72,18.48Zm.72,9.37c-3,0-4.74,1.57-4.7,4.48s1.7,4.56,4.7,4.52a4.15,4.15,0,0,0,4.39-4.22C75,29.79,73.48,28,70.44,27.85ZM51.58,46c3.08.13,4.72-1.54,4.7-4.41s-1.76-4.56-4.7-4.51a4.14,4.14,0,0,0-4.38,4.23C47.08,44.14,48.46,46,51.58,46Zm37.15,0c2.85.17,4.58-1.39,4.64-4.29s-1.64-4.61-4.58-4.64a4.13,4.13,0,0,0-4.49,4.1C84.11,44,85.42,46,88.73,46Zm-41.5,18.5c3-.06,4.48-1.84,4.37-4.67s-2.1-4.37-4.92-4.19c-2.59.17-4,1.81-4,4.45C42.65,63.12,44.19,64.64,47.23,64.54Z" style="fill: #6c884c"/>
        <g>
          <path d="M54,110.55H52.12v3a.85.85,0,0,1-1.69,0v-8.27a.81.81,0,0,1,.84-.77H54a3,3,0,1,1,0,6ZM52.12,109H54a1.45,1.45,0,1,0,0-2.88H52.12Z" style="fill: #6c884c"/>
          <path d="M60.8,105.6a.79.79,0,0,1-.82.78.81.81,0,0,1-.83-.78v-.29a.8.8,0,0,1,.83-.76.78.78,0,0,1,.82.76Zm0,2.54v5.46a.78.78,0,0,1-.82.76.8.8,0,0,1-.83-.76v-5.46a.79.79,0,0,1,.83-.77A.77.77,0,0,1,60.8,108.14Z" style="fill: #6c884c"/>
          <path d="M69.76,110.27v3.35a.77.77,0,0,1-.79.74.79.79,0,0,1-.81-.74v-3.35a1.51,1.51,0,0,0-1.58-1.42,1.47,1.47,0,0,0-1.52,1.42v3.35a.27.27,0,0,1,0,.14.83.83,0,0,1-.81.6.77.77,0,0,1-.8-.74V108.1a.76.76,0,0,1,.8-.74.83.83,0,0,1,.75.43,3.17,3.17,0,0,1,1.61-.43A3.07,3.07,0,0,1,69.76,110.27Z" style="fill: #6c884c"/>
          <path d="M76.17,108.13a.83.83,0,0,1-.86.77h-.38v3.9a.81.81,0,0,1,.84.79.79.79,0,0,1-.84.77,1.63,1.63,0,0,1-1.68-1.56v-3.9H72.8a.8.8,0,0,1-.83-.77.79.79,0,0,1,.83-.77h.45v-2a.81.81,0,0,1,.85-.77.79.79,0,0,1,.83.77v2h.38A.82.82,0,0,1,76.17,108.13Z" style="fill: #6c884c"/>
          <path d="M84.81,110.87v2.75a.79.79,0,0,1-.81.74.82.82,0,0,1-.79-.6,3.64,3.64,0,0,1-2,.6,3.69,3.69,0,0,1-2.59-1,3.47,3.47,0,0,1-1-2.47,3.4,3.4,0,0,1,1-2.46,3.69,3.69,0,0,1,4.61-.44.81.81,0,0,1,.79-.61.78.78,0,0,1,.81.75Zm-1.61,0a2,2,0,0,0-2-2,1.91,1.91,0,0,0-1.42.58,2,2,0,0,0-.57,1.44,1.92,1.92,0,0,0,2,2,2,2,0,0,0,1.41-.55A2,2,0,0,0,83.2,110.87Z" style="fill: #6c884c"/>
          <path d="M92.48,108.1a.78.78,0,0,1-.81.74,1.48,1.48,0,0,0-.91.27,2,2,0,0,0-.7.67,4.08,4.08,0,0,0-.62,1.18v2.66a.8.8,0,0,1-.84.74.79.79,0,0,1-.81-.74V108.1a.77.77,0,0,1,.81-.73.79.79,0,0,1,.84.73v.1a1.69,1.69,0,0,1,.32-.28,3.53,3.53,0,0,1,1.91-.55A.76.76,0,0,1,92.48,108.1Z" style="fill: #6c884c"/>
        </g>
      </g>
    </g>
  </g>
</svg>
