<svg xmlns="http://www.w3.org/2000/svg" viewBox="0 0 133.7 126.38">
  <title>Recurso 18</title>
  <g id="Capa_2" data-name="Capa 2">
    <g id="trazo">
      <rect x="0.5" y="0.5" width="132.7" height="125.38" style="fill: #f9f9f9;stroke: #000;stroke-miterlimit: 10;opacity: 0.5700000000000001"/>
      <g>
        <path d="M60.32,40.29c-5-1.85-7.33,1.52-10.16,3.33s-6,3.13-8.43,0c-2.23-2.87,0-5.07,2.38-7.11,11.58-9.72,31.4-6.48,38.21,6.58C84.21,46.69,86,49,90.83,48.44c3.39-.38,6,1.27,5.8,4.85-.17,3.27-2.79,4-5.86,4.32-7.89.79-14.22-.73-16.35-10.19L69.65,58.16c.35.53.48,1,.8,1.19,13,8.06,14.33,13.07,6.58,26.14-1.29,2.18-3.06,4.17-6.16,3-2.72-1-4.29-3.34-2.87-5.8,5.6-9.65,1.51-14.86-8.38-18.83-5.29-2.12-6.73-6.94-4.29-12.23C57,48,58.58,44.28,60.32,40.29Z" style="fill: #6c884c"/>
        <path d="M50.57,62l7,6.9c-1.11,4.89-4.5,6.85-9.7,6.7-3-.08-6,.08-9-.07-3.17-.15-5.43-1.51-5.29-4.77.12-2.9,2.21-4.16,5.11-4.37a28.31,28.31,0,0,1,4.51,0C46.77,66.64,49.89,66.26,50.57,62Z" style="fill: #6c884c"/>
        <path d="M67.64,23.81c.29-3.8,2.39-6.39,6.64-6.66,4.63-.29,7.57,2.4,7.75,6.35s-2.69,6.72-7.3,6.72C70.45,30.21,68.12,27.86,67.64,23.81Z" style="fill: #6c884c"/>
      </g>
      <g>
        <path d="M51.65,105.19h-2.4v7.48a.79.79,0,0,1-.83.77.8.8,0,0,1-.83-.77v-7.48H45.21a.81.81,0,0,1-.83-.79.79.79,0,0,1,.83-.77h6.44a.8.8,0,0,1,.83.77A.83.83,0,0,1,51.65,105.19Z" style="fill: #6c884c"/>
        <path d="M58,107.18a.78.78,0,0,1-.8.74,1.55,1.55,0,0,0-.91.26,2.24,2.24,0,0,0-.69.68,4.19,4.19,0,0,0-.62,1.17v2.66a.8.8,0,0,1-.83.75.78.78,0,0,1-.8-.75v-5.51a.76.76,0,0,1,.8-.73.79.79,0,0,1,.83.73v.09a2.14,2.14,0,0,1,.32-.28,3.47,3.47,0,0,1,1.9-.54A.76.76,0,0,1,58,107.18Z" style="fill: #6c884c"/>
        <path d="M60.24,112.41a3.34,3.34,0,0,1-1-2.46,3.47,3.47,0,0,1,1-2.45,3.66,3.66,0,0,1,2.6-1.07,3.46,3.46,0,0,1,2.52,1.07A3.37,3.37,0,0,1,66.42,110a3.25,3.25,0,0,1-1.06,2.46,3.46,3.46,0,0,1-2.52,1.07A3.66,3.66,0,0,1,60.24,112.41Zm.61-2.46a1.84,1.84,0,0,0,2,2,2,2,0,0,0,1.39-.52,2.09,2.09,0,0,0,.59-1.48,2.05,2.05,0,0,0-.59-1.46,2.21,2.21,0,0,0-1.39-.53,2.29,2.29,0,0,0-1.45.53A2.1,2.1,0,0,0,60.85,110Z" style="fill: #6c884c"/>
        <path d="M72.09,107.2a.82.82,0,0,1-.84.77h-.38v3.91a.8.8,0,0,1,.83.79.79.79,0,0,1-.83.77,1.62,1.62,0,0,1-1.67-1.56V108h-.44a.77.77,0,1,1,0-1.54h.44v-2a.8.8,0,0,1,.84-.77.79.79,0,0,1,.83.77v2h.38A.81.81,0,0,1,72.09,107.2Z" style="fill: #6c884c"/>
        <path d="M80.67,110v2.74a.79.79,0,0,1-.8.75.81.81,0,0,1-.79-.61,3.58,3.58,0,0,1-2,.61,3.65,3.65,0,0,1-2.57-1,3.46,3.46,0,0,1,0-4.93,3.63,3.63,0,0,1,2.57-1,3.59,3.59,0,0,1,2,.62.81.81,0,0,1,.79-.62.79.79,0,0,1,.8.76Zm-1.6,0a2,2,0,0,0-.59-1.44,1.93,1.93,0,0,0-1.4-.58,1.89,1.89,0,0,0-1.41.58A2,2,0,0,0,75.1,110a2,2,0,0,0,.57,1.44,2,2,0,0,0,1.41.55,1.95,1.95,0,0,0,2-2Z" style="fill: #6c884c"/>
        <path d="M88.28,107.18a.78.78,0,0,1-.8.74,1.55,1.55,0,0,0-.91.26,2.14,2.14,0,0,0-.69.68,3.93,3.93,0,0,0-.62,1.17v2.66a.8.8,0,0,1-.83.75.78.78,0,0,1-.8-.75v-5.51a.76.76,0,0,1,.8-.73.79.79,0,0,1,.83.73v.09a2.14,2.14,0,0,1,.32-.28,3.47,3.47,0,0,1,1.9-.54A.76.76,0,0,1,88.28,107.18Z" style="fill: #6c884c"/>
      </g>
    </g>
  </g>
</svg>
