<svg xmlns="http://www.w3.org/2000/svg" viewBox="0 0 133.7 126.38">
  <title>Recurso 21</title>
  <g id="Capa_2" data-name="Capa 2">
    <g id="trazo">
      <rect x="0.5" y="0.5" width="132.7" height="125.38" style="fill: #f9f9f9;stroke: #000;stroke-miterlimit: 10;opacity: 0.5700000000000001"/>
      <g>
        <path d="M54.72,44.9C48.33,40.34,42.31,36,36.26,31.74c-3.54-2.5-3.48-4.46.16-7.06,5.28-3.78,10.23-4.86,16.21-1.51s12.65,5.35,18.84,8.39c3.2,1.58,5.76,1.2,8.7-.58C86.1,27.41,91.79,23,98.91,22.91c3.73-.07,7.67-.2,9.82,3.87,2.29,4.34-.38,7.81-2.54,11.22-2.44,3.85-5.85,6.31-9.47,8.41C84.87,53.29,73,60.19,61.08,66.88c-8.24,4.62-17.35,3.46-25.58,1.63C29.9,67.26,26.22,59.75,22.75,54c-1.33-2.2,5-7,8.44-6.38a8.79,8.79,0,0,1,1.65.64C43.51,52.82,43.51,52.82,54.72,44.9Z" style="fill: #6c884c"/>
        <path d="M63.37,94c-12.57,0-25.15,0-37.72,0-2.89,0-5.3.1-5.36-4.57s2-5.42,5.39-5.41q38.31.09,76.62,0c3.41,0,5.4.8,5.34,5.45S105.1,94,102.26,94Q82.82,94,63.37,94Z" style="fill: #6c884c"/>
      </g>
      <g>
        <path d="M48.71,117.5l-.1-.08s0,0,0,0-.06,0-.07-.08h0l-.07-.12L45,109a.75.75,0,0,1,.42-1,.76.76,0,0,1,1,.4l2.73,6.49,2.73-6.49a.77.77,0,0,1,1-.4.76.76,0,0,1,.42,1l-3.46,8.18a.61.61,0,0,1,0,.12h0s0,0-.07.08,0,0,0,0l-.08.08h0s-.07.06-.11.07h0a.45.45,0,0,0-.11,0H49l-.11,0a0,0,0,0,0,0,0h0l-.12-.08Z" style="fill: #6c884c"/>
        <path d="M57.11,108.88a.75.75,0,0,1-.75.77.77.77,0,0,1-.76-.77v-.29a.76.76,0,0,1,.76-.76.74.74,0,0,1,.75.76Zm0,2.54v5.46a.74.74,0,0,1-.75.75.75.75,0,0,1-.76-.75v-5.46a.75.75,0,0,1,.76-.77A.74.74,0,0,1,57.11,111.42Z" style="fill: #6c884c"/>
        <path d="M65.44,114.15v2.74a.74.74,0,0,1-.74.74A.77.77,0,0,1,64,117a3.15,3.15,0,0,1-1.86.6,3.25,3.25,0,0,1-2.38-1,3.67,3.67,0,0,1,0-4.93,3.24,3.24,0,0,1,2.38-1.05,3.17,3.17,0,0,1,1.86.62.78.78,0,0,1,.73-.62.75.75,0,0,1,.74.76Zm-1.48,0a2.06,2.06,0,0,0-.55-1.45,1.74,1.74,0,0,0-1.3-.57,1.71,1.71,0,0,0-1.3.57,2,2,0,0,0-.53,1.45,2.07,2.07,0,0,0,.53,1.44,1.77,1.77,0,0,0,1.3.55,1.8,1.8,0,0,0,1.3-.55A2.09,2.09,0,0,0,64,114.15Z" style="fill: #6c884c"/>
        <path d="M68.49,119.34a.75.75,0,0,1,.77-.74v-7.2a.77.77,0,0,1,.76-.77.76.76,0,0,1,.76.77v7.2a1.52,1.52,0,0,1-1.52,1.51A.74.74,0,0,1,68.49,119.34Zm.79-10.45v-.28a.76.76,0,0,1,.77-.77.75.75,0,0,1,.75.77v.28a.77.77,0,0,1-.75.77A.78.78,0,0,1,69.28,108.89Z" style="fill: #6c884c"/>
        <path d="M79,114.15v2.74a.74.74,0,0,1-1.47.14,3.21,3.21,0,0,1-1.87.6,3.25,3.25,0,0,1-2.38-1,3.67,3.67,0,0,1,0-4.93,3.18,3.18,0,0,1,4.25-.43.74.74,0,0,1,1.47.14Zm-1.49,0A2.06,2.06,0,0,0,77,112.7a1.74,1.74,0,0,0-1.3-.57,1.71,1.71,0,0,0-1.3.57,2,2,0,0,0-.53,1.45,2.07,2.07,0,0,0,.53,1.44,1.77,1.77,0,0,0,1.3.55,1.8,1.8,0,0,0,1.3-.55A2.09,2.09,0,0,0,77.51,114.15Z" style="fill: #6c884c"/>
        <path d="M86.05,111.37a.75.75,0,0,1-.74.75,1.35,1.35,0,0,0-.84.26,2.19,2.19,0,0,0-.65.67,4.57,4.57,0,0,0-.57,1.18v2.66a.76.76,0,0,1-.77.74.74.74,0,0,1-.74-.74v-5.52a.73.73,0,0,1,.74-.72.75.75,0,0,1,.77.72v.1a1.9,1.9,0,0,1,.29-.28,3,3,0,0,1,1.77-.54A.72.72,0,0,1,86.05,111.37Z" style="fill: #6c884c"/>
      </g>
    </g>
  </g>
</svg>
