<svg xmlns="http://www.w3.org/2000/svg" viewBox="0 0 133.7 126.38">
  <title>Recurso 23</title>
  <g id="Capa_2" data-name="Capa 2">
    <g id="trazo">
      <g>
        <rect x="0.5" y="0.5" width="132.7" height="125.38" style="fill: #f9f9f9;stroke: #000;stroke-miterlimit: 10;opacity: 0.5700000000000001"/>
        <path d="M59.09,52.87a9.52,9.52,0,0,0-7.57-4.93A13.63,13.63,0,0,1,39.36,32.41,14,14,0,0,1,54.85,20.77c7.74.95,13,7.56,11.83,15.75-.42,3,.24,4.61,4.15,7.15,4.86-5.51,9.46-11.28,14.64-16.45,5.87-5.88,11.79-5.64,18.59.28-8.35,7.94-16.69,15.89-25.59,24.37L104.6,77.4c-6.75,7-13,7.33-19.2,1.13-5.18-5.18-9.76-11-15-16.14-3.61,2.33-4.17,4-3.75,7A13.44,13.44,0,0,1,54.76,85,13.94,13.94,0,0,1,39.35,73.3C38.19,65.87,43.57,59,51.6,57.74,55.62,57.08,55.62,57.08,59.09,52.87Zm-6-23.12c-2.37.58-4.52,1.54-4.52,4.62s2,4.48,4.61,4.53a4.12,4.12,0,0,0,4.33-4.17C57.67,31.82,55.89,30.34,53.06,29.75ZM53.38,76c2.55-.69,4.38-2.14,4.1-5.07a4.11,4.11,0,0,0-4.42-4.06c-2.65.11-4.59,1.6-4.51,4.63S50.73,75.6,53.38,76Z" style="fill: #6c884c"/>
        <g>
          <path d="M26.79,106.55v8.27a.78.78,0,0,1-.77.77.76.76,0,0,1-.76-.77v-5.9l-2,2.8a.74.74,0,0,1-.62.32h0a.78.78,0,0,1-.64-.32l-2-2.8v5.9a.77.77,0,1,1-1.54,0v-8.27a.77.77,0,0,1,.76-.77h.05a.75.75,0,0,1,.61.32L22.62,110l2.76-3.87a.74.74,0,0,1,.62-.32h0A.79.79,0,0,1,26.79,106.55Z" style="fill: #6c884c"/>
          <path d="M35.86,112.1v2.74a.74.74,0,0,1-.73.75.76.76,0,0,1-.72-.61,3.13,3.13,0,0,1-1.85.61,3.19,3.19,0,0,1-2.35-1,3.7,3.7,0,0,1,0-4.93,3.17,3.17,0,0,1,2.35-1,3.14,3.14,0,0,1,1.85.62.76.76,0,0,1,.72-.62.75.75,0,0,1,.73.76Zm-1.47,0a2.07,2.07,0,0,0-.54-1.44,1.7,1.7,0,0,0-1.29-.58,1.63,1.63,0,0,0-1.28.58,2,2,0,0,0-.53,1.44,2.07,2.07,0,0,0,.53,1.44,1.71,1.71,0,0,0,1.28.55,1.78,1.78,0,0,0,1.29-.55A2.13,2.13,0,0,0,34.39,112.1Z" style="fill: #6c884c"/>
          <path d="M44.22,111.5v3.34a.74.74,0,0,1-.72.75.76.76,0,0,1-.74-.75V111.5a1.43,1.43,0,0,0-1.44-1.42,1.39,1.39,0,0,0-1.38,1.42v3.34a.24.24,0,0,1,0,.14.76.76,0,0,1-.73.61.74.74,0,0,1-.74-.75v-5.52a.74.74,0,0,1,.74-.74.76.76,0,0,1,.68.44,2.67,2.67,0,0,1,1.46-.44A2.92,2.92,0,0,1,44.22,111.5Z" style="fill: #6c884c"/>
          <path d="M49.68,115.59a2.92,2.92,0,0,1-2.88-2.92v-3.35a.74.74,0,1,1,1.47,0v3.35a1.41,1.41,0,0,0,1.41,1.43,1.45,1.45,0,0,0,1.46-1.43v-3.35a.73.73,0,0,1,.72-.74.77.77,0,0,1,.75.74v3.35A2.94,2.94,0,0,1,49.68,115.59Z" style="fill: #6c884c"/>
          <path d="M61.3,112.1v2.74a.75.75,0,0,1-.74.75.77.77,0,0,1-.72-.61,3.1,3.1,0,0,1-1.84.61,3.19,3.19,0,0,1-2.35-1,3.67,3.67,0,0,1,0-4.93,3.17,3.17,0,0,1,2.35-1,3.11,3.11,0,0,1,1.84.62.76.76,0,0,1,.72-.62.75.75,0,0,1,.74.76Zm-1.47,0a2.07,2.07,0,0,0-.54-1.44,1.7,1.7,0,0,0-1.29-.58,1.67,1.67,0,0,0-1.29.58,2.06,2.06,0,0,0-.52,1.44,2.12,2.12,0,0,0,.52,1.44,1.74,1.74,0,0,0,1.29.55,1.78,1.78,0,0,0,1.29-.55A2.13,2.13,0,0,0,59.83,112.1Z" style="fill: #6c884c"/>
          <path d="M65.07,105.78a.78.78,0,0,1,.78.77v8.27a.77.77,0,1,1-1.54,0v-8.27A.77.77,0,0,1,65.07,105.78Z" style="fill: #6c884c"/>
          <path d="M69.17,106.83a.75.75,0,0,1-.74.77.76.76,0,0,1-.75-.77v-.29a.75.75,0,0,1,.75-.76.74.74,0,0,1,.74.76Zm0,2.54v5.46a.74.74,0,0,1-.74.76.75.75,0,0,1-.75-.76v-5.46a.74.74,0,0,1,.75-.77A.73.73,0,0,1,69.17,109.37Z" style="fill: #6c884c"/>
          <path d="M77.83,114.83a.75.75,0,0,1-1.48.15,3.29,3.29,0,0,1-1.88.61,3.51,3.51,0,0,1,0-7,3.31,3.31,0,0,1,1.86.59v-2.63a.75.75,0,1,1,1.5,0v8.29Zm-3.36-4.72a1.78,1.78,0,0,0-1.3.57,2,2,0,0,0-.56,1.42,2,2,0,0,0,.56,1.38,1.75,1.75,0,0,0,2.6,0,2,2,0,0,0,.56-1.38,2,2,0,0,0-.56-1.42A1.78,1.78,0,0,0,74.47,110.11Z" style="fill: #6c884c"/>
          <path d="M86.57,112.1v2.74a.75.75,0,0,1-.74.75.77.77,0,0,1-.72-.61,3.1,3.1,0,0,1-1.84.61,3.19,3.19,0,0,1-2.35-1,3.67,3.67,0,0,1,0-4.93,3.17,3.17,0,0,1,2.35-1,3.11,3.11,0,0,1,1.84.62.76.76,0,0,1,.72-.62.75.75,0,0,1,.74.76Zm-1.47,0a2.07,2.07,0,0,0-.54-1.44,1.7,1.7,0,0,0-1.29-.58,1.67,1.67,0,0,0-1.29.58,2.06,2.06,0,0,0-.52,1.44,2.12,2.12,0,0,0,.52,1.44,1.74,1.74,0,0,0,1.29.55,1.78,1.78,0,0,0,1.29-.55A2.13,2.13,0,0,0,85.1,112.1Z" style="fill: #6c884c"/>
          <path d="M95.56,114.83a.75.75,0,0,1-1.48.15,3.29,3.29,0,0,1-1.88.61,3.51,3.51,0,0,1,0-7,3.26,3.26,0,0,1,1.85.59v-2.63a.77.77,0,0,1,.77-.76.76.76,0,0,1,.74.76v8.29Zm-3.36-4.72a1.78,1.78,0,0,0-1.3.57,2,2,0,0,0-.56,1.42,2,2,0,0,0,.56,1.38,1.75,1.75,0,0,0,2.6,0,2,2,0,0,0,.55-1.38,2,2,0,0,0-.55-1.42A1.78,1.78,0,0,0,92.2,110.11Z" style="fill: #6c884c"/>
          <path d="M97.74,112.08a3.46,3.46,0,0,1,3.39-3.5,3.32,3.32,0,0,1,3.33,3.25v.07a.57.57,0,0,1,0,.13.67.67,0,0,1-.72.56H99.32a1.86,1.86,0,0,0,.48.92,2.09,2.09,0,0,0,1.33.63,2.25,2.25,0,0,0,1.44-.35.78.78,0,0,1,1,0,.65.65,0,0,1,0,.91,3.49,3.49,0,0,1-5.87-2.58Zm1.51-.68h3.93a2.28,2.28,0,0,0-2.05-1.49A2,2,0,0,0,99.25,111.4Z" style="fill: #6c884c"/>
          <path d="M106.34,113.58a.72.72,0,0,1,1-.11,2.53,2.53,0,0,0,1.52.62,1.8,1.8,0,0,0,.94-.27.56.56,0,0,0,.25-.42.2.2,0,0,0,0-.14s-.07-.1-.18-.17a3.21,3.21,0,0,0-1.11-.39h0a5.68,5.68,0,0,1-1.21-.36,2.4,2.4,0,0,1-1-.82,1.73,1.73,0,0,1-.24-.88,2,2,0,0,1,.82-1.54,3,3,0,0,1,1.7-.52,3.51,3.51,0,0,1,2.08.77.77.77,0,0,1,.22,1,.73.73,0,0,1-1,.2,2.3,2.3,0,0,0-1.28-.52,1.41,1.41,0,0,0-.83.25c-.18.13-.22.25-.22.32a.13.13,0,0,0,0,.11.34.34,0,0,0,.15.14,2.64,2.64,0,0,0,1,.34h0a5,5,0,0,1,1.29.41,2.12,2.12,0,0,1,1,.83,1.79,1.79,0,0,1,.27.92,2,2,0,0,1-.88,1.63,3.13,3.13,0,0,1-1.8.56,4,4,0,0,1-2.46-1A.75.75,0,0,1,106.34,113.58Z" style="fill: #6c884c"/>
        </g>
      </g>
    </g>
  </g>
</svg>
