<?xml version="1.0" encoding="utf-8"?>
<!-- Generator: Adobe Illustrator 23.0.5, SVG Export Plug-In . SVG Version: 6.00 Build 0)  -->
<svg version="1.1" xmlns="http://www.w3.org/2000/svg" xmlns:xlink="http://www.w3.org/1999/xlink" x="0px" y="0px"
	 viewBox="0 0 792 612" style="enable-background:new 0 0 792 612;" xml:space="preserve">
<style type="text/css">
	.st0{fill:#FED45F;}
	.st1{fill:#FDFDFE;}
	.st2{font-family:'QuicksandBold-Regular';}
	.st3{font-size:12px;}
	.st4{fill:#FDFEFE;}
	.st5{fill:none;stroke:#7CBF26;stroke-width:0.7868;stroke-miterlimit:10;}
	.st6{fill:#6C884C;}
	.st7{fill:#F2F2F2;}
	.st8{font-size:11.4404px;}
</style>
<g id="Capa_1">
	<path class="st0" d="M144.8,146.7c-1.6-2.5-3.4-3.7-6.2-4c-6.6-0.8-10.9-6.6-10-12.6c1-6,6.6-10.2,12.7-9.4
		c6.3,0.8,10.6,6.1,9.7,12.8c-0.3,2.4,0.2,3.7,3.4,5.8c4-4.5,7.7-9.1,12-13.3c4.8-4.8,9.7-4.6,15.2,0.2c-6.8,6.4-13.7,12.9-21,19.8
		c7.9,7.6,14.7,14.2,21.4,20.7c-5.5,5.7-10.6,5.9-15.7,0.9c-4.2-4.2-8-8.9-12.2-13.1c-3,1.9-3.4,3.3-3.1,5.7
		c0.9,6.6-3.4,12-9.8,12.7c-6.1,0.7-11.7-3.5-12.6-9.5c-0.9-6,3.5-11.6,10-12.6C142,150.1,142,150.1,144.8,146.7z M139.9,128
		c-1.9,0.5-3.7,1.2-3.7,3.7c0,2.5,1.6,3.6,3.8,3.7c2,0,3.4-1.3,3.5-3.4C143.6,129.7,142.2,128.5,139.9,128z M140.1,165.5
		c2.1-0.6,3.6-1.7,3.4-4.1c-0.2-2.1-1.6-3.4-3.6-3.3c-2.2,0.1-3.8,1.3-3.7,3.8C136.2,164.3,138,165.1,140.1,165.5z"/>
	<path class="st1" d="M115.1,203.8c2.3,0.5,3.8,1.7,3.6,4c-0.1,2.1-1.5,3.4-3.5,3.4c-2.2,0-3.8-1.2-3.8-3.7
		C111.4,205,113.1,204.2,115.1,203.8z"/>
	<path class="st1" d="M115.3,241.3c-2.2-0.4-3.9-1.2-4-3.7c-0.1-2.4,1.5-3.7,3.7-3.8c2-0.1,3.4,1.2,3.6,3.3
		C118.9,239.6,117.4,240.7,115.3,241.3z"/>
	<g>
		<path class="st0" d="M148.9,242.7c9.4,0.6,5.9,7.5,6.9,12.3c5.2,2.2,12.8-2.6,16.4,5.5c-8,11.7-19.4,18.6-33.1,22
			c-4.7,1.2-9.5,1.6-14.3,2.1c-4.2,0.4-7.2-1.5-7.9-5.8c-0.6-3.5,2.2-6.7,6.5-7.1c8.7-0.7,13.6-6.2,17.3-13.3
			C143.4,253.2,145.5,247.5,148.9,242.7z"/>
		<path class="st0" d="M149.8,239.3c6.2-3.6,11-3.9,16.1-2c1.4-2.3,1.6-4.6,0.8-6.7c-1-3,1-4.2,2.9-5.9c3.4,3.8,4,8,2.4,12.1
			c-1.1,2.9-0.6,4.7,1.3,7c3.1,3.9,3.8,8.6,2.5,15.4c-4-7.7-10-8-16.9-7.2C160.3,245.1,158.5,240.4,149.8,239.3z"/>
	</g>
	<g>
		<path class="st0" d="M252.9,348.9c-5.5-3.5-10.7-6.8-15.9-10.1c-3.1-1.9-3-3.4,0.1-5.4c4.6-2.9,8.8-3.7,14-1.2
			c5.2,2.6,10.9,4.1,16.2,6.4c2.8,1.2,5,0.9,7.5-0.4c5.1-2.7,10-6.1,16.1-6.2c3.2-0.1,6.6-0.2,8.5,3c2,3.3-0.3,6-2.2,8.6
			c-2.1,2.9-5,4.8-8.2,6.4c-10.2,5.3-20.4,10.5-30.7,15.6c-7.1,3.5-14.9,2.6-22,1.2c-4.8-1-8-6.7-11-11.1c-1.1-1.7,4.3-5.4,7.3-4.9
			c0.5,0.1,0.9,0.3,1.4,0.5C243.3,355,243.3,355,252.9,348.9z"/>
		<path class="st0" d="M262.1,386.4c-10.8,0-21.7,0-32.5,0c-2.5,0-4.6,0.1-4.6-3.5c0-3.6,1.7-4.1,4.6-4.1c22,0.1,44,0,66,0
			c2.9,0,4.6,0.6,4.6,4.2c-0.1,3.6-2.2,3.5-4.6,3.4C284.4,386.4,273.3,386.4,262.1,386.4z"/>
	</g>
	<g>
		<path class="st0" d="M145.9,366.7c-18.5-5.1-26.1-13-25.8-26.4c18.4-3.4,33.2,8.5,33.5,27.1c0.1,4.6-0.1,9.3,0,14
			c0.1,2.7-1.2,3.5-3.6,3.5c-2.4,0-4.2-0.3-4.2-3.4C146,376.5,145.9,371.5,145.9,366.7z"/>
		<path class="st0" d="M179.4,332.8c0.2,13.2-8.9,23.3-23,25.5c-1.7-3.8-3.2-7.9-6.1-11.1c-1.6-1.9,0.1-3.1,1.1-4.3
			C158.6,333.7,168.3,331.3,179.4,332.8z"/>
	</g>
	<g>
		<path class="st0" d="M257.9,244.5c-3.9-1.5-5.7,1.3-7.9,2.8c-2.3,1.6-4.6,2.6-6.5,0c-1.7-2.4,0-4.2,1.8-5.9
			c9-8.1,24.3-5.4,29.6,5.5c1.5,3,2.9,4.9,6.6,4.5c2.6-0.3,4.6,1.1,4.5,4c-0.1,2.7-2.2,3.3-4.5,3.6c-6.1,0.7-11-0.6-12.7-8.5
			c-1.5,3.7-2.6,6.4-3.7,9c0.3,0.4,0.4,0.8,0.6,1c10.1,6.7,11.1,10.9,5.1,21.8c-1,1.8-2.4,3.5-4.8,2.5c-2.1-0.9-3.3-2.8-2.2-4.8
			c4.3-8,1.2-12.4-6.5-15.7c-4.1-1.8-5.2-5.8-3.3-10.2C255.4,250.9,256.6,247.8,257.9,244.5z"/>
		<path class="st0" d="M250.4,262.6c2,2.1,3.6,3.9,5.4,5.8c-0.9,4.1-3.5,5.7-7.5,5.6c-2.3-0.1-4.7,0.1-7-0.1c-2.5-0.1-4.2-1.3-4.1-4
			c0.1-2.4,1.7-3.5,4-3.6c1.2-0.1,2.3-0.1,3.5,0C247.4,266.5,249.9,266.2,250.4,262.6z"/>
		<path class="st0" d="M263.6,230.8c0.2-3.2,1.8-5.3,5.1-5.6c3.6-0.2,5.9,2,6,5.3c0.1,3.4-2.1,5.6-5.6,5.6
			C265.8,236.1,264,234.1,263.6,230.8z"/>
	</g>
	<path d="M102.8,139.8"/>
	<text transform="matrix(1 0 0 1 110.3558 197.5682)" class="st2 st3">Manualidades</text>
	<text transform="matrix(1 0 0 1 127.3557 305.5112)" class="st2 st3">Picante</text>
	<text transform="matrix(1 0 0 1 241.0182 411.2609)" class="st2 st3">Viajar</text>
	<text transform="matrix(1 0 0 1 245.018 305.5111)" class="st2 st3">Trotar</text>
	<text transform="matrix(1 0 0 1 127.3558 411.261)" class="st2 st3">Plantar</text>
	<path class="st0" d="M262.2,116.7c15.9-0.3,29.6,12.5,30.4,28.4c0.3,5.3-2.4,8.6-7.7,9c-3,0.3-6,0-9,0.2c-6.1,0.4-9.1,4.8-7.5,10.6
		c2.4,8.4-1.6,12.9-10.3,11.6c-15.5-2.5-26.5-16.6-25.4-32.6C233.7,129.1,246.8,117,262.2,116.7z M262.8,124.3
		c-2.4,0-3.8,1.3-3.8,3.6c0,2.3,1.4,3.7,3.8,3.7c2.2,0,3.4-1.4,3.6-3.4C266.5,125.9,265.2,124.4,262.8,124.3z M247.5,139
		c2.5,0.1,3.8-1.2,3.8-3.6c0-2.3-1.4-3.7-3.8-3.6c-2.1,0-3.5,1.4-3.5,3.4C243.9,137.5,245,139,247.5,139z M277.6,139
		c2.3,0.1,3.7-1.1,3.8-3.5c0-2.3-1.3-3.7-3.7-3.8c-2.1,0-3.5,1.3-3.6,3.3C273.8,137.4,274.9,139,277.6,139z M244,154
		c2.5-0.1,3.6-1.5,3.5-3.8c-0.1-2.4-1.7-3.5-4-3.4c-2.1,0.1-3.3,1.5-3.3,3.6C240.3,152.8,241.5,154.1,244,154z"/>
	<path class="st4" d="M618.2,456.8c-2.5,0-3.6-1.5-3.5-3.8c0.1-2,1.4-3.4,3.5-3.4c2.4,0,3.8,1.3,3.8,3.6
		C622,455.6,620.7,456.9,618.2,456.8z"/>
	<path class="st4" d="M648.2,456.8c-2.7-0.1-3.7-1.6-3.6-3.9c0.1-2.1,1.5-3.3,3.6-3.3c2.4,0,3.7,1.4,3.7,3.8
		C651.9,455.7,650.5,456.9,648.2,456.8z"/>
	<path class="st4" d="M614.6,471.8c-2.5,0.1-3.7-1.2-3.7-3.6c0-2.1,1.2-3.5,3.3-3.6c2.3-0.2,3.9,1,4,3.4
		C618.3,470.3,617.1,471.7,614.6,471.8z"/>
	<text transform="matrix(1 0 0 1 246.8173 197.5684)" class="st2 st3">Pintar</text>
	<rect x="98.7" y="105.3" class="st5" width="104.4" height="98.8"/>
	<rect x="210.4" y="105.3" class="st5" width="104.4" height="98.8"/>
	<rect x="210.5" y="317.8" class="st5" width="104.4" height="98.8"/>
	<rect x="98.7" y="317.8" class="st5" width="104.4" height="98.8"/>
	<rect x="210.5" y="211.2" class="st5" width="104.4" height="98.8"/>
	<rect x="98.7" y="211.2" class="st5" width="104.4" height="98.8"/>
</g>
<g id="trazo">
	<path class="st6" d="M146.6,131.3"/>
	<g>
		<g>
			<path class="st0" d="M553,257.3c9.4,0.6,5.9,7.5,6.9,12.3c5.2,2.2,12.8-2.6,16.4,5.5c-8,11.7-19.4,18.6-33.1,22
				c-4.7,1.2-9.5,1.6-14.3,2.1c-4.2,0.4-7.2-1.5-7.9-5.8c-0.6-3.5,2.2-6.7,6.5-7.1c8.7-0.7,13.6-6.2,17.3-13.3
				C547.5,267.8,549.6,262.2,553,257.3z"/>
			<path class="st0" d="M554,253.9c6.2-3.6,11-3.9,16.1-2c1.4-2.3,1.6-4.6,0.8-6.7c-1-3,1-4.2,2.9-5.9c3.4,3.8,4,8,2.4,12.1
				c-1.1,2.9-0.6,4.7,1.3,7c3.1,3.9,3.8,8.6,2.5,15.4c-4-7.7-10-8-16.9-7.2C564.4,259.7,562.6,255,554,253.9z"/>
		</g>
		<text transform="matrix(1 0 0 1 531.4991 320.1296)" class="st7 st2 st3">Picante</text>
	</g>
	<g>
		<g>
			<path class="st0" d="M657.1,363.5c-5.5-3.5-10.7-6.8-15.9-10.1c-3.1-1.9-3-3.4,0.1-5.4c4.6-2.9,8.8-3.7,14-1.2
				c5.2,2.6,10.9,4.1,16.2,6.4c2.8,1.2,5,0.9,7.5-0.4c5.1-2.7,10-6.1,16.1-6.2c3.2-0.1,6.6-0.2,8.5,3c2,3.3-0.3,6-2.2,8.6
				c-2.1,2.9-5,4.8-8.2,6.4c-10.2,5.3-20.4,10.5-30.7,15.6c-7.1,3.5-14.9,2.6-22,1.2c-4.8-1-8-6.7-11-11.1c-1.1-1.7,4.3-5.4,7.3-4.9
				c0.5,0.1,0.9,0.3,1.4,0.5C647.4,369.6,647.4,369.6,657.1,363.5z"/>
			<path class="st0" d="M666.2,401c-10.8,0-21.7,0-32.5,0c-2.5,0-4.6,0.1-4.6-3.5c0-3.6,1.7-4.1,4.6-4.1c22,0.1,44,0,66,0
				c2.9,0,4.6,0.6,4.6,4.2c-0.1,3.6-2.2,3.5-4.6,3.4C688.6,401,677.4,401,666.2,401z"/>
		</g>
		<text transform="matrix(1 0 0 1 645.1616 425.8793)" class="st7 st2 st3">Viajar</text>
	</g>
	<g>
		<g>
			<path class="st0" d="M662.1,259.1c-3.9-1.5-5.7,1.3-7.9,2.8c-2.3,1.6-4.6,2.6-6.5,0c-1.7-2.4,0-4.2,1.8-5.9
				c9-8.1,24.3-5.4,29.6,5.5c1.5,3,2.9,4.9,6.6,4.5c2.6-0.3,4.6,1.1,4.5,4c-0.1,2.7-2.2,3.3-4.5,3.6c-6.1,0.7-11-0.6-12.7-8.5
				c-1.5,3.7-2.6,6.4-3.7,9c0.3,0.4,0.4,0.8,0.6,1c10.1,6.7,11.1,10.9,5.1,21.8c-1,1.8-2.4,3.5-4.8,2.5c-2.1-0.9-3.3-2.8-2.2-4.8
				c4.3-8,1.2-12.4-6.5-15.7c-4.1-1.8-5.2-5.8-3.3-10.2C659.5,265.5,660.7,262.4,662.1,259.1z"/>
			<path class="st0" d="M654.5,277.2c2,2.1,3.6,3.9,5.4,5.8c-0.9,4.1-3.5,5.7-7.5,5.6c-2.3-0.1-4.7,0.1-7-0.1
				c-2.5-0.1-4.2-1.3-4.1-4c0.1-2.4,1.7-3.5,4-3.6c1.2-0.1,2.3-0.1,3.5,0C651.6,281.1,654,280.8,654.5,277.2z"/>
			<path class="st0" d="M667.7,245.4c0.2-3.2,1.8-5.3,5.1-5.6c3.6-0.2,5.9,2,6,5.3c0.1,3.4-2.1,5.6-5.6,5.6
				C669.9,250.7,668.1,248.7,667.7,245.4z"/>
		</g>
		<text transform="matrix(1 0 0 1 649.1614 320.1295)" class="st7 st2 st3">Trotar</text>
	</g>
	<g>
		<g>
			<path class="st0" d="M550,381.3c-18.5-5.1-26.1-13-25.8-26.4c18.4-3.4,33.2,8.5,33.5,27.1c0.1,4.6-0.1,9.3,0,14
				c0.1,2.7-1.2,3.5-3.6,3.5c-2.4,0-4.2-0.3-4.2-3.4C550.1,391.1,550,386.1,550,381.3z"/>
			<path class="st0" d="M583.6,347.4c0.2,13.2-8.9,23.3-23,25.5c-1.7-3.8-3.2-7.9-6.1-11.1c-1.6-1.9,0.1-3.1,1.1-4.3
				C562.8,348.3,572.5,345.9,583.6,347.4z"/>
		</g>
		<text transform="matrix(1 0 0 1 531.4991 425.8793)" class="st7 st2 st3">Plantar</text>
	</g>
	<g>
		<path class="st0" d="M666.1,133.3c23.8-0.3,44.4,11.9,45.6,27c0.4,5.1-3.6,8.2-11.6,8.6c-4.5,0.3-9,0-13.5,0.2
			c-9.2,0.4-13.7,4.6-11.2,10.1c3.6,8-2.4,12.3-15.4,11c-23.2-2.4-39.7-15.8-38.1-31.1C623.4,145.1,643,133.6,666.1,133.3z
			 M667,140.5c-3.6,0-5.7,1.2-5.7,3.5c0,2.2,2.1,3.5,5.7,3.5c3.3,0,5.1-1.3,5.3-3.2C672.5,142,670.7,140.6,667,140.5z M644.1,154.5
			c3.7,0.1,5.7-1.2,5.7-3.4c0-2.2-2.1-3.5-5.7-3.5c-3.2,0-5.2,1.3-5.3,3.3C638.7,153.1,640.3,154.5,644.1,154.5z M689.2,154.5
			c3.5,0.1,5.6-1.1,5.6-3.3c0.1-2.2-2-3.6-5.5-3.6c-3.2,0-5.2,1.2-5.4,3.2C683.6,153,685.2,154.5,689.2,154.5z M638.9,168.8
			c3.7-0.1,5.4-1.4,5.3-3.6c-0.1-2.3-2.5-3.4-6-3.2c-3.1,0.1-4.9,1.4-4.9,3.4C633.3,167.7,635.2,168.9,638.9,168.8z"/>
		<text transform="matrix(1.5733 0 0 1 643.0625 210.3555)" class="st7 st2 st8">Pintar</text>
	</g>
	<g>
		<path class="st0" d="M549,161.3c-1.6-2.5-3.4-3.7-6.2-4c-6.6-0.8-10.9-6.6-10-12.6c1-6,6.6-10.2,12.7-9.4
			c6.3,0.8,10.6,6.1,9.7,12.8c-0.3,2.4,0.2,3.7,3.4,5.8c4-4.5,7.7-9.1,12-13.3c4.8-4.8,9.7-4.6,15.2,0.2c-6.8,6.4-13.7,12.9-21,19.8
			c7.9,7.6,14.7,14.2,21.4,20.7c-5.5,5.7-10.6,5.9-15.7,0.9c-4.2-4.2-8-8.9-12.2-13.1c-3,1.9-3.4,3.3-3.1,5.7
			c0.9,6.6-3.4,12-9.8,12.7c-6.1,0.7-11.7-3.5-12.6-9.5c-0.9-6,3.5-11.6,10-12.6C546.1,164.8,546.1,164.8,549,161.3z M544,142.6
			c-1.9,0.5-3.7,1.2-3.7,3.7c0,2.5,1.6,3.6,3.8,3.7c2,0,3.4-1.3,3.5-3.4C547.8,144.3,546.3,143.1,544,142.6z M544.3,180.1
			c2.1-0.6,3.6-1.7,3.4-4.1c-0.2-2.1-1.6-3.4-3.6-3.3c-2.2,0.1-3.8,1.3-3.7,3.8C540.4,178.9,542.1,179.8,544.3,180.1z"/>
		<path d="M507,154.4"/>
		<text transform="matrix(1 0 0 1 514.4991 212.1866)" class="st7 st2 st3">Manualidades</text>
		<path class="st6" d="M550.7,146"/>
	</g>
</g>
</svg>
