<?xml version="1.0" encoding="utf-8"?>
<!-- Generator: Adobe Illustrator 23.0.5, SVG Export Plug-In . SVG Version: 6.00 Build 0)  -->
<svg version="1.1" id="Capa_1" xmlns="http://www.w3.org/2000/svg" xmlns:xlink="http://www.w3.org/1999/xlink" x="0px" y="0px"
	 viewBox="0 0 551 223.3" style="enable-background:new 0 0 551 223.3;" xml:space="preserve">
<style type="text/css">
	.st0{fill:none;}
	.st1{fill:none;stroke:#CFF9E4;stroke-width:6;stroke-miterlimit:10;}
</style>
<path class="st0" d="M19.8,446.8c2.3,0.4,4.7,0.7,7,1.1"/>
<path class="st0" d="M26.8,441.7c0-0.3,0-0.7,0-1C26.5,440.4,27.1,442,26.8,441.7z"/>
<path class="st1" d="M20.7,171.7c0.7,2.9,5,3.7,7.1,1.7s2.1-5.7,0.5-8.2c-3.5-5.6-13-4.9-16.8,0.4c-3.9,5.4-2.6,13.3,1.7,18.4
	c4.2,5.1,10.8,7.8,17.2,9.1c23.5,4.8,47-9,66.3-23.2c34.2-25.2,57.7-56.3,83.6-90c6.2-8.1,14.6-18.1,23.9-22.4s19.5-4.6,25.6,3.6
	c-7.2-9.6-21.1-7.3-29.5,1.2c-9.2,9.2-10.7,24-8.2,36.6c0.4,2,1.2,3.8,2.5,5.3c6.4,7.2,17-0.6,21.9-8.4c6.3-10.1,11.7-28.5,14.8-40
	c-4.8,32.3-7.5,72.4-7,105.1c0.2,15.1,0.8,31-5.8,44.6c-2,4.2-4.9,8.2-10.7,8.2c-3.8,0-7.4-1.9-9.8-4.9c-4.5-5.7-4.5-13.4-3-20.3
	c4.6-21.7,21.2-38.4,34.4-56.2c16.3-21.8,24.6-47.2,31.5-73.6c-5.9,15.5-2.3,33.4,1.1,49.4c0.9,4.1,3.9,7.5,8,8.5
	c6.1,1.5,9.5-3.4,11.9-8c7.3-13.9,11.6-29.3,12.6-45c0.3-4.3-0.1-9.4-3.9-11.6c-3.8-2.2-8.4-0.3-10,3.8c-2.6,6.4,2.9,12.5,9,13.5
	c2.9,0.5,5.9,0.1,8.7,1.1c6.2,2.2,8.3,9.9,7.9,16.4c-0.5,8.1-3.6,16.4,0.7,24.2c2.1,3.7,6.2,5.9,10.4,5c4.6-1,6.3-5.4,7.6-9.4
	c3.5-10.6,6-21.5,7.5-32.5c0.1-0.8,1.3-0.8,1.4,0c0.5,8.1-0.9,16.3,0.1,24.4c1.2,9.9,8.6,20.7,18.6,19.7
	c12.1-1.2,15.8-17.1,15.4-29.3c-0.4-11.5-2.3-24.4-13.8-29.6c-6.3-2.8-13.9-0.4-16.6,5.9c-3,7,2.5,13.4,8.8,15.3
	c5,1.5,10.4,0.7,15.5-0.5c27-6.4,48.7-31,71.9-46.3S471,8,498.8,8.2c9.2,0.1,27.4,3.2,34.6,8.9s13.4,20.1,9.9,28.6
	c-1.9,4.4-4.3,6.6-9.1,6.7c-4.8,0.1-9.5-4.4-8.7-9.1s8.3-6.8,10.9-2.7"/>
<path class="st1" d="M258.7,34.4c-0.4-0.1-1-0.2-1.3,0.2c-0.1,0.2-0.2,0.4-0.2,0.7c-0.1,1.6,0.5,3.1,1.1,4.5c1.2,3,2.4,5.9,3.6,8.9
	c2.5-2.3,6.2-2.6,8.8-4.8c1.5-1.2,1.2-2.9-0.5-3.7c-1.7-0.8-3.4,1.3-5,0.9C262.2,40.3,262.2,35.6,258.7,34.4z"/>
</svg>
