<svg id="Capa_1" data-name="Capa 1" xmlns="http://www.w3.org/2000/svg" viewBox="0 0 158.63 132.23">
  <title>rd</title>
  <g>
    <path d="M183.78,288.22" transform="translate(-169.35 -175.18)" style="fill: #5a9d9e;stroke: #5a9d9e;stroke-miterlimit: 10"/>
    <path d="M198.42,290.05" transform="translate(-169.35 -175.18)" style="fill: #5a9d9e;stroke: #5a9d9e;stroke-miterlimit: 10"/>
    <g>
      <rect x="107.89" y="49.37" width="44.24" height="76.36" rx="4.68" style="fill: #fdffff;stroke: #5a9d9e;stroke-miterlimit: 10;stroke-width: 13px"/>
      <path d="M27.69.5H128.09a8.78,8.78,0,0,1,8.78,8.78V20.91a0,0,0,0,1,0,0H16.06a0,0,0,0,1,0,0V12.13A11.63,11.63,0,0,1,27.69.5Z" style="fill: #5a9d9e;stroke: #5a9d9e;stroke-miterlimit: 10"/>
      <rect x="16.06" y="20.91" width="17.69" height="56.47" style="fill: #5a9d9e;stroke: #5a9d9e;stroke-miterlimit: 10"/>
      <path d="M6.71,77.36H95.38a0,0,0,0,1,0,0V97.74a0,0,0,0,1,0,0H14.66A14.16,14.16,0,0,1,.5,83.57v0a6.21,6.21,0,0,1,6.21-6.21Z" style="fill: #5a9d9e;stroke: #5a9d9e;stroke-miterlimit: 10"/>
      <rect x="117.35" y="19.86" width="19.53" height="16.47" style="fill: #5a9d9e;stroke: #5a9d9e;stroke-miterlimit: 10"/>
    </g>
  </g>
</svg>
