<?xml version="1.0" encoding="utf-8"?>
<!-- Generator: Adobe Illustrator 23.0.5, SVG Export Plug-In . SVG Version: 6.00 Build 0)  -->
<svg version="1.1" id="Capa_1" xmlns="http://www.w3.org/2000/svg" xmlns:xlink="http://www.w3.org/1999/xlink" x="0px" y="0px"
	 viewBox="0 0 158.6 132.2" style="enable-background:new 0 0 158.6 132.2;" xml:space="preserve">
<style type="text/css">
	.st0{fill:none;stroke:#FDAEDB;stroke-miterlimit:10;}
	.st1{fill:#FDAEDB;stroke:#FDAEDB;stroke-miterlimit:10;}
	.st2{fill:none;stroke:#FDAEDB;stroke-width:13;stroke-miterlimit:10;}
</style>
<title>rd</title>
<path class="st0" d="M14.4,113"/>
<path class="st1" d="M29.1,114.9"/>
<path class="st2" d="M112.6,49.4h34.9c2.6,0,4.7,2.1,4.7,4.7v67c0,2.6-2.1,4.7-4.7,4.7h-34.9c-2.6,0-4.7-2.1-4.7-4.7V54
	C107.9,51.5,110,49.4,112.6,49.4z"/>
<path class="st1" d="M27.7,0.5h100.4c4.8,0,8.8,3.9,8.8,8.8v11.6l0,0H16.1l0,0v-8.8C16.1,5.7,21.3,0.5,27.7,0.5
	C27.7,0.5,27.7,0.5,27.7,0.5z"/>
<rect x="16.1" y="20.9" class="st1" width="17.7" height="56.5"/>
<path class="st1" d="M6.7,77.4h88.7l0,0v20.4l0,0H14.7c-7.8,0-14.2-6.3-14.2-14.2c0,0,0,0,0,0l0,0C0.5,80.1,3.3,77.4,6.7,77.4z"/>
<rect x="117.3" y="19.9" class="st1" width="19.5" height="16.5"/>
</svg>
