<svg xmlns="http://www.w3.org/2000/svg" xmlns:xlink="http://www.w3.org/1999/xlink" viewBox="0 0 794 673.03">
  <title>Recurso 6</title>
  <g id="Capa_2" data-name="Capa 2">
    <g id="Capa_1-2" data-name="Capa 1">
      <g>
        <image width="566" height="651" transform="matrix(0, -1.19, 1.02, 0, 1.01, 672.04)" xlink:href="Recurso%2061.png"/>
        <g>
          <path d="M131.89,340.69a3.16,3.16,0,0,1,.84,2.28v30a3.08,3.08,0,0,1-.89,2.25,3,3,0,0,1-2.26.91,2.84,2.84,0,0,1-2.11-.91,3.08,3.08,0,0,1-.88-2.25V360.86H110.93v12.08a3.16,3.16,0,0,1-3.1,3.16,2.85,2.85,0,0,1-2.18-.91,3.14,3.14,0,0,1-.86-2.25V343a3.12,3.12,0,0,1,.88-2.26,3,3,0,0,1,2.26-.9,2.85,2.85,0,0,1,2.11.9,3.12,3.12,0,0,1,.89,2.26v11.92h15.66V343a3.12,3.12,0,0,1,3.09-3.16A2.88,2.88,0,0,1,131.89,340.69Z"/>
          <path d="M169.55,367.36a17.13,17.13,0,0,1-6,6.77,16,16,0,0,1-17.14,0,16.86,16.86,0,0,1-5.94-6.77,21.76,21.76,0,0,1,0-18.82,16.9,16.9,0,0,1,5.94-6.76,16,16,0,0,1,17.14,0,17.17,17.17,0,0,1,6,6.76,21.58,21.58,0,0,1,0,18.82ZM164,351.65a11.15,11.15,0,0,0-3.68-4.48,9,9,0,0,0-5.3-1.66,9.06,9.06,0,0,0-5.33,1.63,10.81,10.81,0,0,0-3.63,4.49,16,16,0,0,0,0,12.65,10.78,10.78,0,0,0,3.63,4.48,9.39,9.39,0,0,0,10.63,0,11.12,11.12,0,0,0,3.68-4.49,15.59,15.59,0,0,0,0-12.6Z"/>
          <path d="M198.45,370.89a3,3,0,0,1,.86,2.2,2.94,2.94,0,0,1-3,3h-16a2.79,2.79,0,0,1-2.13-.91,3.1,3.1,0,0,1-.86-2.25V343a3.12,3.12,0,0,1,.88-2.26,3,3,0,0,1,2.26-.9,2.85,2.85,0,0,1,2.11.9,3.12,3.12,0,0,1,.89,2.26V370h12.81A2.93,2.93,0,0,1,198.45,370.89Z"/>
          <path d="M232.15,373.3a3,3,0,0,1-.83,2.2,2.63,2.63,0,0,1-1.92.86,2.46,2.46,0,0,1-1.59-.57,3.64,3.64,0,0,1-1.11-1.56L224.15,368H209.52L207,374.29a3.21,3.21,0,0,1-1.05,1.53,2.52,2.52,0,0,1-1.55.54,2.48,2.48,0,0,1-1.94-.73,2.81,2.81,0,0,1-.66-2,3.49,3.49,0,0,1,.15-1l12.22-31a3.42,3.42,0,0,1,1.18-1.6,2.46,2.46,0,0,1,1.77-.47,2.75,2.75,0,0,1,1.64.54,3.12,3.12,0,0,1,1.11,1.53l12.08,30.39A3.71,3.71,0,0,1,232.15,373.3ZM211.92,362h9.82l-5-12.14Z"/>
          <path d="M242.46,378.69a10.85,10.85,0,0,1-2.16,3.17,3.89,3.89,0,0,1-2.75,1.34,2.75,2.75,0,0,1-1.72-.49,1.88,1.88,0,0,1-.63-1.58,1.5,1.5,0,0,1,.39-1.17,2.56,2.56,0,0,1,.86-.49,4.26,4.26,0,0,0,.66-.26,2.33,2.33,0,0,0,1.38-2.07,1.31,1.31,0,0,0-.52-1,2,2,0,0,0-1.35-.44,2.38,2.38,0,0,0-1.37.36,2.16,2.16,0,0,1-.91-.68,2,2,0,0,1-.32-1.24,3,3,0,0,1,.73-1.94,5.65,5.65,0,0,1,1.82-1.46,4.72,4.72,0,0,1,2.11-.54,4.24,4.24,0,0,1,3.39,1.42,6.08,6.08,0,0,1,1.23,4.08A7.54,7.54,0,0,1,242.46,378.69Z"/>
          <path d="M40.45,437.91a14.39,14.39,0,0,1-5.16-3.17A3.73,3.73,0,0,1,34,432a3,3,0,0,1,.84-2.1,2.65,2.65,0,0,1,2-.9,2.49,2.49,0,0,1,1.67.62,14.47,14.47,0,0,0,3.83,2.49,11.45,11.45,0,0,0,4.42.78,8.54,8.54,0,0,0,4.74-1.3,3.79,3.79,0,0,0,2-3.22,4.17,4.17,0,0,0-2-3.65,16.07,16.07,0,0,0-6.23-2q-10.75-1.65-10.76-10.57a9.88,9.88,0,0,1,1.63-5.68,10.28,10.28,0,0,1,4.41-3.68,14.91,14.91,0,0,1,6.24-1.27,17.18,17.18,0,0,1,5.82,1,14,14,0,0,1,4.54,2.59,3.53,3.53,0,0,1,1.42,2.75,3,3,0,0,1-.83,2.1,2.58,2.58,0,0,1-2,.91,2.07,2.07,0,0,1-1.32-.47,12.81,12.81,0,0,0-3.56-2,11.16,11.16,0,0,0-4.1-.91A8.13,8.13,0,0,0,42,408.69a4,4,0,0,0,0,6.56,15.88,15.88,0,0,0,5.48,1.86,27.51,27.51,0,0,1,6.75,2,8.75,8.75,0,0,1,3.8,3.32A10.66,10.66,0,0,1,59.35,428a9.67,9.67,0,0,1-1.74,5.73A11.47,11.47,0,0,1,53,437.52a14.89,14.89,0,0,1-6.24,1.32A19.52,19.52,0,0,1,40.45,437.91Z"/>
          <path d="M94.45,429.58a17.13,17.13,0,0,1-6,6.77,16,16,0,0,1-17.14,0,17,17,0,0,1-5.94-6.77,21.85,21.85,0,0,1,0-18.82A17,17,0,0,1,71.35,404a16,16,0,0,1,17.14,0,17.17,17.17,0,0,1,6,6.76,21.58,21.58,0,0,1,0,18.82Zm-5.54-15.71a11.19,11.19,0,0,0-3.69-4.48,9,9,0,0,0-5.3-1.66,9.06,9.06,0,0,0-5.33,1.63A10.89,10.89,0,0,0,71,413.85a16,16,0,0,0,0,12.65A10.86,10.86,0,0,0,74.59,431a9.39,9.39,0,0,0,10.63,0,11.22,11.22,0,0,0,3.69-4.49,15.69,15.69,0,0,0,0-12.6Z"/>
          <path d="M125.29,407,115,422.51v12.65a3.17,3.17,0,0,1-.84,2.25,2.62,2.62,0,0,1-2,.91,2.77,2.77,0,0,1-2.09-.91,3.14,3.14,0,0,1-.86-2.25V421.78L99,407.47a4.2,4.2,0,0,1-.88-2.44,2.89,2.89,0,0,1,1-2.25,3.14,3.14,0,0,1,2.14-.91,2.94,2.94,0,0,1,2.41,1.45l8.64,12.6,8.1-12.49a2.94,2.94,0,0,1,2.45-1.56,2.77,2.77,0,0,1,2.07.93,3.26,3.26,0,0,1,.88,2.28A3.57,3.57,0,0,1,125.29,407Z"/>
          <path d="M171.2,435.52a3,3,0,0,1-.84,2.2,2.61,2.61,0,0,1-1.91.86,2.49,2.49,0,0,1-1.6-.57,3.7,3.7,0,0,1-1.1-1.56l-2.56-6.27H148.56L146,436.51A3.15,3.15,0,0,1,145,438a2.7,2.7,0,0,1-3.48-.18,2.77,2.77,0,0,1-.67-2,3.49,3.49,0,0,1,.15-1l12.23-31a3.48,3.48,0,0,1,1.17-1.61,2.53,2.53,0,0,1,1.77-.46,2.81,2.81,0,0,1,1.65.54,3.16,3.16,0,0,1,1.1,1.53L171,434.28A3.74,3.74,0,0,1,171.2,435.52ZM151,424.22h9.82l-5-12.14Z"/>
          <path d="M203.36,402.86a3,3,0,0,1,.73,2.07v30.23a3.1,3.1,0,0,1-.86,2.25,2.79,2.79,0,0,1-2.13.91,4.16,4.16,0,0,1-1.35-.23,2,2,0,0,1-1-.65l-18-24.16v22.14a2.92,2.92,0,0,1-.76,2.07,2.59,2.59,0,0,1-2,.83,2.45,2.45,0,0,1-1.91-.83,3,3,0,0,1-.74-2.07V405.19a3.18,3.18,0,0,1,.86-2.26,2.82,2.82,0,0,1,2.13-.9,3.5,3.5,0,0,1,1.45.31,2.26,2.26,0,0,1,1.06.83l17.87,24.05V404.93a2.92,2.92,0,0,1,.76-2.07,2.51,2.51,0,0,1,1.94-.83A2.42,2.42,0,0,1,203.36,402.86Z"/>
          <path d="M238.9,419.63a3.19,3.19,0,0,1,.84,2.25v11a3.16,3.16,0,0,1-1.52,2.8,18.91,18.91,0,0,1-10.56,3.16,16.93,16.93,0,0,1-9-2.52,18.35,18.35,0,0,1-6.53-6.79,19.45,19.45,0,0,1,0-18.72,18.42,18.42,0,0,1,6.53-6.79,17,17,0,0,1,9-2.51,16.58,16.58,0,0,1,8.44,2.07,2.77,2.77,0,0,1,1.11,1.09,3,3,0,0,1,.37,1.45,3.39,3.39,0,0,1-.81,2.26,2.52,2.52,0,0,1-2,1,3.82,3.82,0,0,1-1.62-.42,13.35,13.35,0,0,0-5.5-1.19,10.57,10.57,0,0,0-5.79,1.68,12.16,12.16,0,0,0-4.2,4.54,13.26,13.26,0,0,0,0,12.44,12,12,0,0,0,4.2,4.54,10.5,10.5,0,0,0,5.79,1.69,18.3,18.3,0,0,0,2.94-.26,15.56,15.56,0,0,0,2.75-.68v-6.74h-4.61a2.87,2.87,0,0,1-2.14-.88,3.32,3.32,0,0,1,0-4.46,2.91,2.91,0,0,1,2.14-.88h8A2.72,2.72,0,0,1,238.9,419.63Z"/>
          <path d="M267.21,433.26a3,3,0,0,1,.86,2.1,2.83,2.83,0,0,1-.86,2.13,3,3,0,0,1-2.14.83H248.63a2.8,2.8,0,0,1-2.14-.91,3.14,3.14,0,0,1-.86-2.25v-30a3.18,3.18,0,0,1,.86-2.26,2.82,2.82,0,0,1,2.14-.9h16.44a2.91,2.91,0,0,1,2.14.85,3,3,0,0,1,.86,2.2,2.76,2.76,0,0,1-.84,2.1,3,3,0,0,1-2.16.81h-13.3v8.81h11.09a2.92,2.92,0,0,1,2.14.86,3,3,0,0,1,.86,2.2A2.76,2.76,0,0,1,265,422a3,3,0,0,1-2.16.81H251.77v9.59h13.3A2.84,2.84,0,0,1,267.21,433.26Z"/>
          <path d="M294.8,433.11a3,3,0,0,1,.86,2.2,2.94,2.94,0,0,1-3,3h-16a2.83,2.83,0,0,1-2.14-.91,3.14,3.14,0,0,1-.86-2.25v-30a3.12,3.12,0,0,1,.89-2.26,3,3,0,0,1,2.26-.9,2.87,2.87,0,0,1,2.11.9,3.12,3.12,0,0,1,.88,2.26v27.06h12.82A2.9,2.9,0,0,1,294.8,433.11Z"/>
          <path d="M328.51,435.52a3,3,0,0,1-.84,2.2,2.59,2.59,0,0,1-1.91.86,2.51,2.51,0,0,1-1.6-.57,3.7,3.7,0,0,1-1.1-1.56l-2.55-6.27H305.87l-2.55,6.33a3.2,3.2,0,0,1-1.05,1.52,2.71,2.71,0,0,1-3.49-.18,2.81,2.81,0,0,1-.66-2,3.86,3.86,0,0,1,.14-1l12.23-31a3.43,3.43,0,0,1,1.18-1.61,2.5,2.5,0,0,1,1.77-.46,2.8,2.8,0,0,1,1.64.54,3.12,3.12,0,0,1,1.11,1.53l12.07,30.39A3.51,3.51,0,0,1,328.51,435.52Zm-20.23-11.3h9.82l-5-12.14Z"/>
        </g>
        <image width="577" height="433" transform="translate(140 165.03) scale(1.13 1.17)" xlink:href="../../../../Downloads/Snapseed__2_-removebg-preview.png"/>
        <rect id="_Sector_" data-name="&lt;Sector&gt;" y="0.03" width="668" height="673" style="fill: none"/>
      </g>
    </g>
  </g>
</svg>
