<svg xmlns="http://www.w3.org/2000/svg" xmlns:xlink="http://www.w3.org/1999/xlink" viewBox="0 0 778.61 672.36">
  <title>Recurso 9</title>
  <g id="Capa_2" data-name="Capa 2">
    <g id="Capa_3" data-name="Capa 3">
      <g>
        <image width="566" height="651" transform="matrix(0, -1.19, 1.02, 0, 1.01, 672.04)" xlink:href="Recurso%2091.png"/>
        <rect id="_Sector_" data-name="&lt;Sector&gt;" y="0.03" width="667" height="672" style="fill: none"/>
        <image width="577" height="433" transform="translate(124.61 165.63) scale(1.13 1.17)" xlink:href="../../../../Downloads/Snapseed__2_-removebg-preview.png"/>
        <g>
          <path d="M133.14,334.65a3.21,3.21,0,0,1,.83,2.28v30a3.12,3.12,0,0,1-.88,2.26,3,3,0,0,1-2.26.91,2.86,2.86,0,0,1-2.11-.91,3.12,3.12,0,0,1-.88-2.26V354.82H112.17V366.9a3.14,3.14,0,0,1-3.09,3.17,2.89,2.89,0,0,1-2.18-.91,3.14,3.14,0,0,1-.86-2.26v-30a3.08,3.08,0,0,1,.88-2.25,3,3,0,0,1,2.26-.91,2.82,2.82,0,0,1,2.11.91,3.08,3.08,0,0,1,.88,2.25v11.93h15.67V336.93a3.14,3.14,0,0,1,3.09-3.16A2.89,2.89,0,0,1,133.14,334.65Z"/>
          <path d="M170.8,361.33a17,17,0,0,1-6,6.76,16,16,0,0,1-17.13,0,16.83,16.83,0,0,1-5.94-6.76,21.76,21.76,0,0,1,0-18.82,16.92,16.92,0,0,1,5.94-6.77,16,16,0,0,1,17.13,0,17.15,17.15,0,0,1,6,6.77,21.58,21.58,0,0,1,0,18.82Zm-5.55-15.71a11.12,11.12,0,0,0-3.68-4.49,9.39,9.39,0,0,0-10.63,0,10.8,10.8,0,0,0-3.64,4.48,16,16,0,0,0,0,12.65,10.77,10.77,0,0,0,3.64,4.49,9.41,9.41,0,0,0,10.63,0,11.08,11.08,0,0,0,3.68-4.48,15.59,15.59,0,0,0,0-12.6Z"/>
          <path d="M199.69,364.85a3,3,0,0,1,.86,2.21,2.92,2.92,0,0,1-.86,2.15,2.9,2.9,0,0,1-2.13.86h-16a2.86,2.86,0,0,1-2.14-.91,3.18,3.18,0,0,1-.86-2.26v-30a3.08,3.08,0,0,1,.89-2.25,3,3,0,0,1,2.26-.91,2.84,2.84,0,0,1,2.11.91,3.08,3.08,0,0,1,.88,2.25V364h12.82A2.89,2.89,0,0,1,199.69,364.85Z"/>
          <path d="M233.4,367.27a3,3,0,0,1-.84,2.2,2.58,2.58,0,0,1-1.91.85,2.51,2.51,0,0,1-1.6-.57,3.67,3.67,0,0,1-1.1-1.55l-2.55-6.28H210.76l-2.55,6.33a3.18,3.18,0,0,1-1.05,1.53,2.54,2.54,0,0,1-1.55.54,2.51,2.51,0,0,1-1.94-.72,2.83,2.83,0,0,1-.66-2,4,4,0,0,1,.14-1l12.23-31a3.38,3.38,0,0,1,1.18-1.61,2.46,2.46,0,0,1,1.77-.47,2.74,2.74,0,0,1,1.64.55,3,3,0,0,1,1.1,1.53L233.15,366A3.56,3.56,0,0,1,233.4,367.27ZM213.17,356H223l-5-12.13Z"/>
          <path d="M243.71,372.66a11.2,11.2,0,0,1-2.16,3.16,3.86,3.86,0,0,1-2.75,1.35,2.81,2.81,0,0,1-1.72-.49,1.88,1.88,0,0,1-.64-1.59,1.46,1.46,0,0,1,.39-1.16,2.48,2.48,0,0,1,.86-.49c.31-.11.54-.2.67-.26a2.34,2.34,0,0,0,1.37-2.08,1.3,1.3,0,0,0-.51-1,2,2,0,0,0-1.35-.44,2.44,2.44,0,0,0-1.38.36,2.28,2.28,0,0,1-.91-.67,2.05,2.05,0,0,1-.32-1.25,3,3,0,0,1,.74-1.94,5.51,5.51,0,0,1,1.82-1.45,4.71,4.71,0,0,1,2.11-.55,4.25,4.25,0,0,1,3.39,1.43,6.1,6.1,0,0,1,1.22,4.07A7.5,7.5,0,0,1,243.71,372.66Z"/>
          <path d="M41.69,431.87a14.41,14.41,0,0,1-5.15-3.16A3.71,3.71,0,0,1,35.21,426a3,3,0,0,1,.84-2.1,2.6,2.6,0,0,1,2-.91,2.54,2.54,0,0,1,1.67.62,14.32,14.32,0,0,0,3.83,2.49,11.38,11.38,0,0,0,4.42.78,8.4,8.4,0,0,0,4.73-1.3,3.76,3.76,0,0,0,2-3.21,4.18,4.18,0,0,0-2-3.66,16.08,16.08,0,0,0-6.24-2Q35.74,415,35.75,406.1a10,10,0,0,1,1.62-5.68,10.39,10.39,0,0,1,4.42-3.68A15,15,0,0,1,48,395.47a16.84,16.84,0,0,1,5.81,1,13.9,13.9,0,0,1,4.55,2.59,3.55,3.55,0,0,1,1.42,2.75,3,3,0,0,1-.84,2.1,2.58,2.58,0,0,1-2,.9,2.06,2.06,0,0,1-1.32-.46,13,13,0,0,0-3.56-2,11.41,11.41,0,0,0-4.1-.91,8.11,8.11,0,0,0-4.79,1.22,4,4,0,0,0,0,6.56,16,16,0,0,0,5.47,1.87,27.28,27.28,0,0,1,6.75,2,8.78,8.78,0,0,1,3.81,3.32A10.67,10.67,0,0,1,60.59,422a9.71,9.71,0,0,1-1.74,5.73,11.3,11.3,0,0,1-4.64,3.78A14.85,14.85,0,0,1,48,432.8,19.59,19.59,0,0,1,41.69,431.87Z"/>
          <path d="M95.7,423.55a17,17,0,0,1-6,6.76,16,16,0,0,1-17.13,0,16.83,16.83,0,0,1-5.94-6.76,21.76,21.76,0,0,1,0-18.82A16.86,16.86,0,0,1,72.6,398a16,16,0,0,1,17.13,0,17.08,17.08,0,0,1,6,6.77,21.58,21.58,0,0,1,0,18.82Zm-5.55-15.71a11.12,11.12,0,0,0-3.68-4.49,9.39,9.39,0,0,0-10.63,0,10.71,10.71,0,0,0-3.63,4.48,15.92,15.92,0,0,0,0,12.65A10.74,10.74,0,0,0,75.84,425a9.41,9.41,0,0,0,10.63,0,11.08,11.08,0,0,0,3.68-4.48,15.59,15.59,0,0,0,0-12.6Z"/>
          <path d="M126.54,401l-10.27,15.5v12.65a3.25,3.25,0,0,1-.83,2.26,2.65,2.65,0,0,1-2,.9,2.78,2.78,0,0,1-2.09-.9,3.18,3.18,0,0,1-.86-2.26V415.74l-10.21-14.31a4.19,4.19,0,0,1-.89-2.43,2.93,2.93,0,0,1,1-2.26,3.17,3.17,0,0,1,2.14-.91,3,3,0,0,1,2.4,1.46l8.64,12.6,8.1-12.5a3,3,0,0,1,2.46-1.56,2.78,2.78,0,0,1,2.06.94,3.19,3.19,0,0,1,.89,2.28A3.62,3.62,0,0,1,126.54,401Z"/>
          <path d="M172.44,429.49a3.05,3.05,0,0,1-.83,2.2,2.62,2.62,0,0,1-1.92.85,2.46,2.46,0,0,1-1.59-.57,3.66,3.66,0,0,1-1.11-1.55l-2.55-6.28H149.81l-2.56,6.33A3.18,3.18,0,0,1,146.2,432a2.74,2.74,0,0,1-3.49-.18,2.83,2.83,0,0,1-.66-2,3.61,3.61,0,0,1,.15-1l12.22-31a3.45,3.45,0,0,1,1.18-1.61,2.46,2.46,0,0,1,1.77-.47,2.7,2.7,0,0,1,1.64.55,3,3,0,0,1,1.11,1.53l12.08,30.38A3.77,3.77,0,0,1,172.44,429.49Zm-20.23-11.31H162l-5-12.13Z"/>
          <path d="M204.6,396.82a3,3,0,0,1,.74,2.07v30.23a3.18,3.18,0,0,1-.86,2.26,2.84,2.84,0,0,1-2.14.9,4,4,0,0,1-1.35-.23,1.81,1.81,0,0,1-1-.65l-18-24.16v22.14a3,3,0,0,1-.76,2.07,2.57,2.57,0,0,1-2,.83,2.42,2.42,0,0,1-1.92-.83,3,3,0,0,1-.73-2.07V399.15a3.13,3.13,0,0,1,.85-2.25,2.83,2.83,0,0,1,2.14-.91,3.57,3.57,0,0,1,1.45.31,2.36,2.36,0,0,1,1.05.83L200,421.19v-22.3a2.92,2.92,0,0,1,.76-2.07,2.51,2.51,0,0,1,1.94-.83A2.45,2.45,0,0,1,204.6,396.82Z"/>
          <path d="M240.15,413.59a3.2,3.2,0,0,1,.83,2.26v11a3.14,3.14,0,0,1-1.52,2.8,18.82,18.82,0,0,1-10.55,3.16,16.9,16.9,0,0,1-9-2.51,18.35,18.35,0,0,1-6.53-6.79,19.38,19.38,0,0,1,0-18.72,18.27,18.27,0,0,1,6.53-6.79,16.91,16.91,0,0,1,9-2.52,16.48,16.48,0,0,1,8.44,2.08,2.82,2.82,0,0,1,1.11,1.08,3.06,3.06,0,0,1,.36,1.46,3.38,3.38,0,0,1-.81,2.25,2.5,2.5,0,0,1-2,1,4,4,0,0,1-1.62-.41,13.16,13.16,0,0,0-5.49-1.2,10.64,10.64,0,0,0-5.8,1.69,12.08,12.08,0,0,0-4.2,4.54,13.33,13.33,0,0,0,0,12.44,12.16,12.16,0,0,0,4.2,4.54,10.63,10.63,0,0,0,5.8,1.68,17.4,17.4,0,0,0,2.94-.26,15.61,15.61,0,0,0,2.75-.67v-6.74H230a2.88,2.88,0,0,1-2.14-.88,3.32,3.32,0,0,1,0-4.46,2.84,2.84,0,0,1,2.14-.88h8A2.76,2.76,0,0,1,240.15,413.59Z"/>
          <path d="M268.46,427.23a3,3,0,0,1,.85,2.1,2.82,2.82,0,0,1-.85,2.12,3,3,0,0,1-2.14.83H249.87a2.85,2.85,0,0,1-2.14-.9,3.18,3.18,0,0,1-.85-2.26v-30a3.13,3.13,0,0,1,.85-2.25,2.83,2.83,0,0,1,2.14-.91h16.45a2.93,2.93,0,0,1,2.14.86,3,3,0,0,1,.85,2.2,2.78,2.78,0,0,1-.83,2.1,3,3,0,0,1-2.16.8H253v8.82h11.1a2.93,2.93,0,0,1,2.14.85,3,3,0,0,1,.85,2.21,2.78,2.78,0,0,1-.83,2.1,3,3,0,0,1-2.16.8H253v9.59h13.31A2.83,2.83,0,0,1,268.46,427.23Z"/>
          <path d="M296.05,427.07a3,3,0,0,1,.86,2.21,2.92,2.92,0,0,1-3,3H278a2.82,2.82,0,0,1-2.14-.9,3.18,3.18,0,0,1-.86-2.26v-30a3.08,3.08,0,0,1,.88-2.25,3,3,0,0,1,2.26-.91,2.82,2.82,0,0,1,2.11.91,3.08,3.08,0,0,1,.89,2.25v27.07h12.81A2.91,2.91,0,0,1,296.05,427.07Z"/>
          <path d="M329.76,429.49a3,3,0,0,1-.84,2.2,2.59,2.59,0,0,1-1.91.85,2.49,2.49,0,0,1-1.6-.57,3.73,3.73,0,0,1-1.1-1.55l-2.56-6.28H307.12l-2.55,6.33a3.13,3.13,0,0,1-1.06,1.53,2.73,2.73,0,0,1-3.48-.18,2.79,2.79,0,0,1-.67-2,3.61,3.61,0,0,1,.15-1l12.23-31a3.43,3.43,0,0,1,1.17-1.61,2.49,2.49,0,0,1,1.77-.47,2.75,2.75,0,0,1,1.65.55,3.07,3.07,0,0,1,1.1,1.53l12.08,30.38A3.8,3.8,0,0,1,329.76,429.49Zm-20.23-11.31h9.82l-5-12.13Z"/>
        </g>
      </g>
    </g>
  </g>
</svg>
