<svg id="trazado" xmlns="http://www.w3.org/2000/svg" viewBox="0 0 287.1 235.27">
  <title>sobremi</title>
  <g>
    <path d="M398.08,565.25c-.36-1.07,1.11-2.19,4-5.33,1.68-1.83,3-3.4,3.8-4.43a44.13,44.13,0,0,1,9.91-8.8,49.28,49.28,0,0,1,16.38-6.61,46.17,46.17,0,0,1,18.91-.51,45,45,0,0,1,16.24,6.72,42.18,42.18,0,0,1,13.8,15,41.48,41.48,0,0,1,4.64,19.49,36.48,36.48,0,0,1-4.41,18.31,34.86,34.86,0,0,1-9.24,11.07,85.15,85.15,0,0,0-6.86,5.42,29.4,29.4,0,0,0-4.65,4.77c-2.21,3-2.71,5.34-3.53,5.24s-.89-2-1.31-4c-.53-2.57-1.69-4.9-4-9.58-4-8.15-10.43-15.38-12.82-18.05a114.1,114.1,0,0,0-13.71-12.87c-3.21-2.63-9.4-7.71-15.48-10.65a69.81,69.81,0,0,0-7.47-3.39C399.85,566.3,398.4,566.2,398.08,565.25Z" transform="translate(-211.81 -530.38)" style="fill: #368789;stroke: #ebf2f2;stroke-miterlimit: 10;stroke-width: 0.6719698458909988px;opacity: 0.8200000000000001"/>
    <path d="M353.8,534.18a8.25,8.25,0,0,0,0,8.75,8.06,8.06,0,0,0,5.49,3.86c4.25.65,7.11-2.79,7.32-3A8.46,8.46,0,0,0,368,536a8.28,8.28,0,0,0-5.09-4.88A8.15,8.15,0,0,0,353.8,534.18Z" transform="translate(-211.81 -530.38)" style="fill: #1c5257;stroke: #f9f9f9;stroke-miterlimit: 10;stroke-width: 0.75px"/>
    <path d="M475,643c-3.12,4.38-2.24,9.72,0,13.21a12.84,12.84,0,0,0,8.81,5.84c6.83,1,11.42-4.21,11.75-4.61s4.59-5.55,2.29-11.67c-2.05-5.44-7.55-7.19-8.16-7.37C484.62,636.82,478.3,638.33,475,643Z" transform="translate(-211.81 -530.38)" style="fill: #3397a0;stroke: #f2f7f7;stroke-miterlimit: 10;stroke-width: 0.75px"/>
    <path d="M268.87,594.91c-.93-1.87-10.9,1.33-12.39,1.81a55.73,55.73,0,0,0-9.46,3.83A61.67,61.67,0,0,0,229.91,614a64.7,64.7,0,0,0-12.15,17.65,64,64,0,0,0,3.05,58.22s9.15,15.63,25.53,24.18c2.72,1.43,6.19,2.65,13.13,5.11,4.84,1.71,6.89,2.25,7.45,1.48.74-1-1.59-3.69-3.59-6.43,0,0-2.34-3.21-8.38-16.3-5.62-12.2-6.66-26.59-6.94-30.48A107.75,107.75,0,0,1,254.5,623a109.23,109.23,0,0,1,8.74-18.24,46.33,46.33,0,0,1,3.47-6C268.46,596.15,269.15,595.48,268.87,594.91Z" transform="translate(-211.81 -530.38)" style="fill: #020202;stroke: #000;stroke-miterlimit: 10;stroke-width: 0.75px"/>
    <path d="M277.59,586.74c-.95.28-2.52-2.41-2.83-3a14.34,14.34,0,0,1-2.37-5.83,12.87,12.87,0,0,1,.17-4.16,13.8,13.8,0,0,1,2.08-4.91,13.47,13.47,0,0,1,7.21-5.5c5.37-1.6,9.86,1.1,11.59,2.14,2.64,1.58,5.16,4.11,4.72,5-.08.15-.2.17-.9.56-.3.16-.84.51-1.91,1.21-3,1.93-5.78,4-5.78,4a93.16,93.16,0,0,0-7.73,6.35c-.47.46-1.25,1.29-2.25,2.17-.41.37-.69.6-1.13,1.05C277.83,586.51,277.8,586.68,277.59,586.74Z" transform="translate(-211.81 -530.38)" style="fill: #1d4e51;stroke: #dce2e2;stroke-miterlimit: 10;stroke-width: 0.75px;opacity: 0.76"/>
    <g>
      <path d="M432.16,735c23.39-22.83,29.2-49.85,30.84-60.58,1-6.29,7.73-56.32-29.7-93.42-42.21-41.84-100.57-27.53-104.65-26.46-7.68,2-45.88,13-67.73,52.07-3.24,5.8-23.44,43.35-8.21,86.89,10.42,29.78,31.55,45.62,38.31,50.54a108.5,108.5,0,0,0,19.72,11.15c8.22,3.61,34.05,14.53,67,8A109.38,109.38,0,0,0,432.16,735Z" transform="translate(-211.81 -530.38)" style="fill: #c1dbc6"/>
      <path d="M432.16,735c23.39-22.83,29.2-49.85,30.84-60.58,1-6.29,7.73-56.32-29.7-93.42-42.21-41.84-100.57-27.53-104.65-26.46-7.68,2-45.88,13-67.73,52.07-3.24,5.8-23.44,43.35-8.21,86.89,10.42,29.78,31.55,45.62,38.31,50.54a108.5,108.5,0,0,0,19.72,11.15c8.22,3.61,34.05,14.53,67,8A109.38,109.38,0,0,0,432.16,735Z" transform="translate(-211.81 -530.38)" style="fill: none;stroke: #fff;stroke-miterlimit: 10;stroke-width: 0.75px"/>
    </g>
    <g>
      <path d="M269.91,660.75a1.88,1.88,0,0,1,2.63-.25,11.71,11.71,0,0,0,6.88,2.77,7.77,7.77,0,0,0,4.5-1.33,3.22,3.22,0,0,0,1.54-2.59,2,2,0,0,0-.32-1.15,3.44,3.44,0,0,0-1.08-1.08,14.15,14.15,0,0,0-4.93-1.69h-.07a19.77,19.77,0,0,1-4.65-1.41,7.77,7.77,0,0,1-3.34-2.81,5.51,5.51,0,0,1-.83-3,6.62,6.62,0,0,1,2.88-5.25,10.6,10.6,0,0,1,6.23-1.91c3.45,0,6,1.69,7.84,2.88a1.86,1.86,0,0,1,.51,2.56,1.83,1.83,0,0,1-2.56.54c-1.84-1.23-3.6-2.31-5.79-2.31a6.92,6.92,0,0,0-4,1.23,2.85,2.85,0,0,0-1.36,2.26,1.76,1.76,0,0,0,.25,1,3.49,3.49,0,0,0,1,.94,12.62,12.62,0,0,0,4.5,1.58h.07a21.33,21.33,0,0,1,5,1.51,8.48,8.48,0,0,1,3.6,3,5.81,5.81,0,0,1,.86,3.06,7,7,0,0,1-3.09,5.58,11.33,11.33,0,0,1-6.66,2.05,15.55,15.55,0,0,1-9.22-3.6A1.92,1.92,0,0,1,269.91,660.75Z" transform="translate(-211.81 -530.38)" style="stroke: #000;stroke-miterlimit: 10;stroke-width: 0.75px"/>
      <path d="M314.59,645a13.25,13.25,0,0,1,0,18.22A11.84,11.84,0,0,1,306,667a12.17,12.17,0,0,1-8.81-3.85,13.41,13.41,0,0,1,0-18.22A12,12,0,0,1,306,641.1,11.69,11.69,0,0,1,314.59,645Zm-.47,9.11a9.3,9.3,0,0,0-2.45-6.3A7.77,7.77,0,0,0,306,645.2a7.86,7.86,0,0,0-5.83,2.56,9.15,9.15,0,0,0-2.44,6.3,9,9,0,0,0,2.44,6.26,7.89,7.89,0,0,0,5.83,2.59,7.8,7.8,0,0,0,5.69-2.59A9.14,9.14,0,0,0,314.12,654.06Z" transform="translate(-211.81 -530.38)" style="stroke: #000;stroke-miterlimit: 10;stroke-width: 0.75px"/>
      <path d="M324.06,665V643.8a2,2,0,0,1,2-2h5.11a6.84,6.84,0,0,1,5.47,10.94A7.71,7.71,0,0,1,332.55,667h-6.37s0,0,0,0-.08,0-.11,0A2,2,0,0,1,324.06,665Zm4-13.47h3.1a2.89,2.89,0,0,0,2.84-2.91,2.83,2.83,0,0,0-2.84-2.84h-3.1Zm0,11.45h4.5a3.73,3.73,0,0,0,0-7.45h-4.5Z" transform="translate(-211.81 -530.38)" style="stroke: #000;stroke-miterlimit: 10;stroke-width: 0.75px"/>
      <path d="M362.11,664a2,2,0,0,1-1.26,2.52,3.49,3.49,0,0,1-.79.11h0a2.64,2.64,0,0,1-1.4-.4,3.61,3.61,0,0,1-1.16-1.26,9.73,9.73,0,0,1-.75-4.32,3.13,3.13,0,0,0-.43-1.55,3.48,3.48,0,0,0-1.08-1,7,7,0,0,0-2-.86h-4.25V665a2,2,0,0,1-2,2,2,2,0,0,1-2-2V643.8a2,2,0,0,1,2-2h6.44a7.7,7.7,0,0,1,4.9,13.64,5.73,5.73,0,0,1,1.26,1.33,6.84,6.84,0,0,1,1.18,3.89,9.34,9.34,0,0,0,.15,2.12A2,2,0,0,1,362.11,664Zm-5-14.47a3.71,3.71,0,0,0-3.71-3.74h-4.43v7.41h4.43A3.7,3.7,0,0,0,357.07,649.56Z" transform="translate(-211.81 -530.38)" style="stroke: #000;stroke-miterlimit: 10;stroke-width: 0.75px"/>
      <path d="M367.94,665V643.8a2,2,0,0,1,2-2h11.77a2,2,0,0,1,2,2,2,2,0,0,1-2,2h-9.75v6.58h8.38a2,2,0,0,1,0,4h-8.38V663h9.75a2,2,0,0,1,0,4H370c-.07,0-.07,0-.07,0l0,0A2,2,0,0,1,367.94,665Z" transform="translate(-211.81 -530.38)" style="stroke: #000;stroke-miterlimit: 10;stroke-width: 0.75px"/>
      <path d="M421.76,643.8V665a2,2,0,0,1-2,2,2,2,0,0,1-2-2V649.88l-5.18,7.2a2,2,0,0,1-1.62.83h-.07a2,2,0,0,1-1.66-.83l-5.15-7.2V665a2,2,0,0,1-4,0V643.8a2,2,0,0,1,2-2h.11a2,2,0,0,1,1.58.83l7.16,9.93,7.17-9.93a2,2,0,0,1,1.62-.83h0A2.06,2.06,0,0,1,421.76,643.8Z" transform="translate(-211.81 -530.38)" style="stroke: #000;stroke-miterlimit: 10;stroke-width: 0.75px"/>
      <path d="M430.72,643.8a2,2,0,0,1,2-2,2,2,0,0,1,2,2V665a2,2,0,0,1-2,2,2,2,0,0,1-2-2Z" transform="translate(-211.81 -530.38)" style="stroke: #000;stroke-miterlimit: 10;stroke-width: 0.75px"/>
    </g>
  </g>
</svg>
