<?xml version="1.0" encoding="utf-8"?>
<!-- Generator: Adobe Illustrator 23.0.5, SVG Export Plug-In . SVG Version: 6.00 Build 0)  -->
<svg version="1.1" id="trazado" xmlns="http://www.w3.org/2000/svg" xmlns:xlink="http://www.w3.org/1999/xlink" x="0px" y="0px"
	 viewBox="0 0 287.1 235.2" style="enable-background:new 0 0 287.1 235.2;" xml:space="preserve">
<style type="text/css">
	.st0{fill:#FDAEDB;stroke:#EBF2F2;stroke-width:0.672;stroke-miterlimit:10;enable-background:new    ;}
	.st1{fill:#E43C5B;stroke:#F9F9F9;stroke-width:0.75;stroke-miterlimit:10;}
	.st2{fill:#FED45F;stroke:#F2F7F7;stroke-width:0.75;stroke-miterlimit:10;}
	.st3{fill:#1F1F1D;stroke:#000000;stroke-width:0.75;stroke-miterlimit:10;}
	.st4{fill:#6C884C;stroke:#DCE2E2;stroke-width:0.75;stroke-miterlimit:10;enable-background:new    ;}
	.st5{opacity:0.5;fill:#308F97;}
	.st6{fill:none;stroke:#FFFFFF;stroke-width:0.75;stroke-miterlimit:10;}
	.st7{stroke:#000000;stroke-width:0.75;stroke-miterlimit:10;}
	.st8{fill:#B17CB5;stroke:#EBF2F2;stroke-width:0.672;stroke-miterlimit:10;}
</style>
<title>sobremi</title>
<path class="st0" d="M190.3,29.6c0,0,3.3-3.8,3.8-4.4c2.8-3.4,6.2-6.4,9.9-8.8c5-3.2,10.6-5.4,16.4-6.6c6.2-1.5,12.6-1.6,18.9-0.5
	c5.8,1.1,11.3,3.4,16.2,6.7c5.8,3.8,10.5,8.9,13.8,15c3.1,6,4.7,12.7,4.7,19.5c0.2,6.4-1.4,12.7-4.4,18.3c-0.1,0.2-0.2,0.4-0.2,0.4
	c-0.7,1.2-2.1,3.6-5.3,7.2c-1.8,2.1-3.4,3.9-5.9,6c-1.5,1.2-2.2,1.6-5.9,4.3c-2.6,1.8-4.6,3.3-6,4.2c-2.1-5.8-4.3-10.5-6-14
	c-1.4-2.8-2.9-5.8-5.3-9.6c-1-1.6-3.5-5.4-7.3-10c-1.3-1.6-5.1-6-10.8-11c-6.6-5.7-12.3-9.2-14-10.2c-3.8-2.3-7.4-4-7.4-4
	C193.7,31.2,190.3,29.6,190.3,29.6z"/>
<path class="st1" d="M142,3.8c-1.7,2.7-1.7,6.1,0,8.8c1.2,2,3.2,3.4,5.5,3.9c4.3,0.6,7.1-2.8,7.3-3c1.7-2.2,2.2-5.1,1.4-7.8
	c-0.9-2.3-2.8-4.1-5.1-4.9C147.7-0.3,144,0.9,142,3.8z"/>
<path class="st2" d="M263.2,112.6c-3.1,4.4-2.2,9.7,0,13.2c2,3.1,5.2,5.2,8.8,5.8c6.8,1,11.4-4.2,11.8-4.6s4.6-5.6,2.3-11.7
	c-2-5.4-7.5-7.2-8.2-7.4C272.8,106.5,266.5,108,263.2,112.6z"/>
<path class="st3" d="M57.1,64.1c-2.9,0.3-6.2,1-9.8,2.1c-0.3,0.1-0.5,0.2-0.6,0.2c-3.3,1-6.4,2.3-9.5,3.8c-6.5,3.4-12.3,8-17.1,13.4
	c-5,5.2-9.1,11.1-12.1,17.6c-8.4,18.8-7.3,40.4,3,58.2c0,0,9.2,15.6,25.5,24.2c4.7,2.4,10,4.1,13.1,5.1c2.4,0.8,4.5,1.4,5.9,1.8
	c-1.7-2.5-3.4-5-5.1-7.4c-2.4-3.8-5.3-9.1-7.9-15.6c-1.6-4-6-15.6-7.1-31c-1.4-20.2,3.4-36.6,7.1-46.1c2-5.5,4.9-11.8,9-18.4
	C53.4,69.1,55.2,66.5,57.1,64.1z"/>
<path class="st4" d="M64.4,55.4c-0.5-0.7-1-1.3-1.5-2c-1.2-1.7-2-3.7-2.4-5.8c-0.2-1.4-0.1-2.8,0.2-4.2c0.4-1.8,1.1-3.4,2.1-4.9
	c1.7-2.6,4.2-4.5,7.2-5.5c4-1.3,8.4-0.3,11.6,2.1c1.5,1.2,2.5,2.6,3,3.5c-0.9,0.6-1.9,1.2-2.8,1.9c-1.6,1.2-3.3,2.4-4.9,3.6
	c-0.3,0.2-4.3,3.4-7.1,6c-1.2,1.1-2.4,2.3-2.4,2.3c-0.7,0.7-1.3,1.3-1.6,1.6C65.2,54.5,64.8,55,64.4,55.4z"/>
<path class="st5" d="M220.4,204.6c23.4-22.8,29.2-49.9,30.8-60.6c1-6.3,7.7-56.3-29.7-93.4C179.3,8.8,120.9,23.1,116.8,24.2
	c-7.7,2-45.9,13-67.7,52.1c-3.2,5.8-23.4,43.3-8.2,86.9c10.4,29.8,31.6,45.6,38.3,50.5c6.2,4.4,12.8,8.1,19.7,11.1
	c8.2,3.6,34,14.5,67,8C186.4,228.8,205.3,219,220.4,204.6z"/>
<path class="st6" d="M220.4,204.6c23.4-22.8,29.2-49.9,30.8-60.6c1-6.3,7.7-56.3-29.7-93.4C179.3,8.8,120.9,23.1,116.8,24.2
	c-7.7,2-45.9,13-67.7,52.1c-3.2,5.8-23.4,43.3-8.2,86.9c10.4,29.8,31.6,45.6,38.3,50.5c6.2,4.4,12.8,8.1,19.7,11.1
	c8.2,3.6,34,14.5,67,8C186.4,228.8,205.3,219,220.4,204.6z"/>
<path class="st7" d="M58.1,130.4c0.7-0.8,1.8-0.9,2.6-0.3c1.9,1.6,4.3,2.6,6.9,2.8c1.6,0,3.2-0.4,4.5-1.3c0.9-0.5,1.5-1.5,1.5-2.6
	c0-0.4-0.1-0.8-0.3-1.2c-0.3-0.4-0.6-0.8-1.1-1.1c-1.5-0.9-3.2-1.4-4.9-1.7h-0.1c-1.6-0.3-3.2-0.8-4.7-1.4c-1.4-0.6-2.5-1.6-3.3-2.8
	c-0.6-0.9-0.8-1.9-0.8-3c0.1-2.1,1.1-4.1,2.9-5.3c1.8-1.3,4-1.9,6.2-1.9c3.4,0,6,1.7,7.8,2.9c0.8,0.6,1.1,1.7,0.5,2.6
	c-0.5,0.8-1.7,1.1-2.5,0.6l0,0c-1.8-1.2-3.6-2.3-5.8-2.3c-1.4,0-2.8,0.4-4,1.2c-0.8,0.5-1.3,1.3-1.4,2.3c0,0.4,0.1,0.7,0.3,1
	c0.3,0.4,0.6,0.7,1,0.9c1.4,0.8,2.9,1.3,4.5,1.6h0c1.7,0.3,3.4,0.8,5,1.5c1.5,0.6,2.7,1.7,3.6,3c0.6,0.9,0.9,2,0.9,3.1
	c-0.1,2.2-1.2,4.3-3.1,5.6c-1.9,1.4-4.3,2.1-6.7,2.1c-3.4-0.2-6.6-1.4-9.2-3.6C57.7,132.4,57.5,131.2,58.1,130.4z"/>
<path class="st7" d="M102.8,114.6c4.8,5.1,4.8,13.1,0,18.2c-2.2,2.4-5.3,3.8-8.6,3.8c-3.3,0-6.5-1.4-8.8-3.9
	c-4.8-5.1-4.8-13.1,0-18.2c2.3-2.4,5.5-3.8,8.8-3.8C97.5,110.8,100.6,112.2,102.8,114.6z M102.3,123.8c0-2.3-0.9-4.6-2.4-6.3
	c-2.8-3.2-7.7-3.5-10.9-0.7c-0.2,0.2-0.4,0.4-0.6,0.6c-1.6,1.7-2.5,4-2.4,6.3c0,2.3,0.8,4.6,2.4,6.3c2.8,3.2,7.7,3.5,10.9,0.6
	c0.2-0.2,0.4-0.4,0.6-0.6C101.5,128.3,102.3,126,102.3,123.8L102.3,123.8z"/>
<path class="st7" d="M112.3,134.6v-21.2c0-1.1,0.9-2,2-2h5.1c3.8,0,6.8,3.1,6.8,6.9c0,1.5-0.5,2.9-1.4,4.1c3.6,2.2,4.7,7,2.5,10.6
	c-1.4,2.3-3.9,3.7-6.6,3.6h-6.5C113.2,136.6,112.3,135.7,112.3,134.6L112.3,134.6z M116.3,121.2h3.1c1.6,0,2.8-1.3,2.8-2.9
	c0-1.6-1.3-2.8-2.8-2.8c0,0,0,0,0,0h-3.1L116.3,121.2z M116.3,132.6h4.5c2.1-0.1,3.6-1.9,3.5-3.9c-0.1-1.9-1.6-3.4-3.5-3.5h-4.5
	V132.6z"/>
<path class="st7" d="M150.3,133.6c0.3,1-0.2,2.2-1.3,2.5c-0.3,0.1-0.5,0.1-0.8,0.1l0,0c-0.5,0-1-0.1-1.4-0.4
	c-0.5-0.3-0.9-0.8-1.2-1.3c-0.6-1.4-0.8-2.8-0.8-4.3c0-0.5-0.2-1.1-0.4-1.6c-0.3-0.4-0.6-0.8-1.1-1c-0.6-0.4-1.3-0.7-2-0.9h-4.3v7.8
	c0,1.1-0.9,2-2,2s-2-0.9-2-2v-21.2c0-1.1,0.9-2,2-2h6.4c4.3,0,7.7,3.4,7.7,7.7c0,2.3-1,4.5-2.8,5.9c0.5,0.4,0.9,0.8,1.3,1.3
	c0.8,1.1,1.2,2.5,1.2,3.9c0,0.7,0,1.4,0.1,2.1C149.7,132.6,150.1,133.1,150.3,133.6z M145.3,119.2c0-2-1.6-3.7-3.7-3.7c0,0,0,0,0,0
	h-4.5v7.4h4.4C143.6,122.8,145.2,121.2,145.3,119.2L145.3,119.2z"/>
<path class="st7" d="M156.1,134.6v-21.2c0-1.1,0.9-2,2-2h11.8c1.1,0,2,0.9,2,2s-0.9,2-2,2h-9.8v6.6h8.4c1.1,0,2,0.9,2,2s-0.9,2-2,2
	h-8.4v6.6h9.8c1.1,0,2,0.9,2,2s-0.9,2-2,2h-11.8C157,136.6,156.1,135.7,156.1,134.6z"/>
<path class="st7" d="M210,113.4v21.2c0,1.1-0.9,2-2,2s-2-0.9-2-2v-15.1l-5.2,7.2c-0.4,0.5-1,0.8-1.6,0.8h-0.1
	c-0.7,0-1.3-0.3-1.7-0.8l-5.1-7.2v15.1c0,1.1-0.9,2-2,2s-2-0.9-2-2v-21.2c0-1.1,0.9-2,2-2h0.1c0.6,0,1.2,0.3,1.6,0.8l7.2,9.9
	l7.2-9.9c0.4-0.5,1-0.8,1.6-0.8l0,0C209.1,111.4,210,112.3,210,113.4z"/>
<path class="st7" d="M218.9,113.4c0-1.1,0.9-2,2-2s2,0.9,2,2v21.2c0,1.1-0.9,2-2,2s-2-0.9-2-2V113.4z"/>
<path class="st8" d="M256.2,92.9"/>
</svg>
