<svg id="trazado" xmlns="http://www.w3.org/2000/svg" width="287.1" height="235.24" viewBox="0 0 287.1 235.24"><title>sobremi</title><path d="M186.27,34.87c-.36-1.07,1.11-2.19,4-5.33,1.68-1.83,3-3.4,3.8-4.43a44,44,0,0,1,9.91-8.8A49.4,49.4,0,0,1,220.36,9.7a46.18,46.18,0,0,1,18.91-.51,44.93,44.93,0,0,1,16.24,6.72,42.16,42.16,0,0,1,13.8,15A41.42,41.42,0,0,1,274,50.4a36.44,36.44,0,0,1-4.41,18.31,34.86,34.86,0,0,1-9.24,11.07,85.48,85.48,0,0,0-6.86,5.42A29.14,29.14,0,0,0,248.79,90c-2.21,3-2.71,5.34-3.53,5.24s-.89-2-1.31-4c-.53-2.57-1.69-4.9-4-9.58-4-8.15-10.43-15.38-12.82-18a114.32,114.32,0,0,0-13.71-12.87c-3.21-2.63-9.4-7.71-15.48-10.65a68.68,68.68,0,0,0-7.47-3.39C188,35.92,186.59,35.82,186.27,34.87Z" transform="translate(0 0.02)" style="fill:#368789;stroke:#ebf2f2;stroke-miterlimit:10;stroke-width:0.6719698309898376px;opacity:0.8199999928474426;isolation:isolate"/><path d="M142,3.8a8.27,8.27,0,0,0,0,8.75,8.08,8.08,0,0,0,5.49,3.86c4.25.65,7.11-2.79,7.32-3a8.48,8.48,0,0,0,1.39-7.79A8.28,8.28,0,0,0,151.1.74,8.15,8.15,0,0,0,142,3.8Z" transform="translate(0 0.02)" style="fill:#1c5257;stroke:#f9f9f9;stroke-miterlimit:10;stroke-width:0.75px"/><path d="M263.19,112.62c-3.12,4.38-2.24,9.72,0,13.21a12.83,12.83,0,0,0,8.81,5.84c6.83,1,11.42-4.21,11.75-4.61s4.59-5.55,2.29-11.67c-2.05-5.44-7.55-7.19-8.16-7.37C272.81,106.44,266.49,108,263.19,112.62Z" transform="translate(0 0.02)" style="fill:#3397a0;stroke:#f2f7f7;stroke-miterlimit:10;stroke-width:0.75px"/><path d="M57.06,64.53c-.93-1.87-10.9,1.33-12.39,1.81a55.77,55.77,0,0,0-9.46,3.83A61.57,61.57,0,0,0,18.1,83.62,64.75,64.75,0,0,0,6,101.27,64,64,0,0,0,9,159.49s9.15,15.63,25.53,24.18c2.72,1.43,6.19,2.65,13.13,5.11,4.84,1.71,6.89,2.25,7.45,1.48.74-1-1.59-3.69-3.59-6.43,0,0-2.34-3.21-8.38-16.3-5.62-12.2-6.66-26.59-6.94-30.48a107.76,107.76,0,0,1,6.49-44.43,109.12,109.12,0,0,1,8.74-18.24,47.7,47.7,0,0,1,3.47-6C56.65,65.77,57.34,65.1,57.06,64.53Z" transform="translate(0 0.02)" style="fill:#020202;stroke:#000;stroke-miterlimit:10;stroke-width:0.75px"/><path d="M65.78,56.36c-1,.28-2.52-2.41-2.83-3a14.39,14.39,0,0,1-2.37-5.83,12.91,12.91,0,0,1,.17-4.16,13.78,13.78,0,0,1,2.08-4.91A13.46,13.46,0,0,1,70,33c5.37-1.6,9.86,1.1,11.59,2.14,2.64,1.58,5.16,4.11,4.72,5-.08.15-.2.17-.9.56-.3.16-.84.51-1.91,1.21-3,1.93-5.78,4-5.78,4A94.13,94.13,0,0,0,70,52.22c-.47.46-1.25,1.29-2.25,2.17-.41.37-.69.6-1.13,1C66,56.13,66,56.3,65.78,56.36Z" transform="translate(0 0.02)" style="fill:#1d4e51;stroke:#dce2e2;stroke-miterlimit:10;stroke-width:0.75px;opacity:0.7599999904632568;isolation:isolate"/><path d="M220.35,204.62c23.39-22.83,29.2-49.85,30.84-60.58,1-6.29,7.73-56.32-29.7-93.42C179.28,8.78,120.92,23.09,116.84,24.16c-7.68,2-45.88,13-67.73,52.07-3.24,5.8-23.44,43.35-8.21,86.89,10.42,29.78,31.55,45.62,38.31,50.54a109.15,109.15,0,0,0,19.72,11.15c8.22,3.61,34,14.53,67,8A109.37,109.37,0,0,0,220.35,204.62Z" transform="translate(0 0.02)" style="fill:#c1dbc6"/><path d="M220.35,204.62c23.39-22.83,29.2-49.85,30.84-60.58,1-6.29,7.73-56.32-29.7-93.42C179.28,8.78,120.92,23.09,116.84,24.16c-7.68,2-45.88,13-67.73,52.07-3.24,5.8-23.44,43.35-8.21,86.89,10.42,29.78,31.55,45.62,38.31,50.54a109.15,109.15,0,0,0,19.72,11.15c8.22,3.61,34,14.53,67,8A109.37,109.37,0,0,0,220.35,204.62Z" transform="translate(0 0.02)" style="fill:none;stroke:#fff;stroke-miterlimit:10;stroke-width:0.75px"/><path d="M58.1,130.37a1.88,1.88,0,0,1,2.63-.25,11.72,11.72,0,0,0,6.88,2.77,7.76,7.76,0,0,0,4.5-1.33A3.21,3.21,0,0,0,73.65,129a2,2,0,0,0-.32-1.15,3.28,3.28,0,0,0-1.08-1.08,14.15,14.15,0,0,0-4.93-1.69h-.07a20,20,0,0,1-4.65-1.41,7.74,7.74,0,0,1-3.34-2.81,5.48,5.48,0,0,1-.83-3,6.63,6.63,0,0,1,2.88-5.25,10.57,10.57,0,0,1,6.23-1.91c3.45,0,6,1.69,7.84,2.88a1.86,1.86,0,0,1,.51,2.56,1.84,1.84,0,0,1-2.53.56l0,0c-1.84-1.23-3.6-2.31-5.79-2.31a7,7,0,0,0-4,1.23,2.86,2.86,0,0,0-1.36,2.26,1.76,1.76,0,0,0,.25,1,3.44,3.44,0,0,0,1,.94,12.67,12.67,0,0,0,4.5,1.58H68a21.37,21.37,0,0,1,5,1.51,8.42,8.42,0,0,1,3.6,3,5.8,5.8,0,0,1,.86,3.06,7,7,0,0,1-3.09,5.58,11.33,11.33,0,0,1-6.66,2.05,15.55,15.55,0,0,1-9.22-3.6A1.93,1.93,0,0,1,58.1,130.37Z" transform="translate(0 0.02)" style="stroke:#000;stroke-miterlimit:10;stroke-width:0.75px"/><path d="M102.78,114.62a13.25,13.25,0,0,1,0,18.22,11.83,11.83,0,0,1-8.59,3.78,12.16,12.16,0,0,1-8.81-3.85,13.41,13.41,0,0,1,0-18.22,12,12,0,0,1,8.81-3.83A11.71,11.71,0,0,1,102.78,114.62Zm-.47,9.11a9.31,9.31,0,0,0-2.45-6.3,7.69,7.69,0,0,0-11.5-.05,9.14,9.14,0,0,0-2.44,6.3,9,9,0,0,0,2.44,6.26,7.7,7.7,0,0,0,11.52,0,9.17,9.17,0,0,0,2.43-6.26Z" transform="translate(0 0.02)" style="stroke:#000;stroke-miterlimit:10;stroke-width:0.75px"/><path d="M112.25,134.62v-21.2a2,2,0,0,1,2-2h5.11a6.85,6.85,0,0,1,5.47,10.94,7.71,7.71,0,0,1-4.09,14.26h-6.48a2,2,0,0,1-2-2Zm4-13.47h3.1a2.9,2.9,0,0,0,2.84-2.91,2.83,2.83,0,0,0-2.82-2.84h-3.12Zm0,11.45h4.5a3.73,3.73,0,0,0,0-7.45h-4.5Z" transform="translate(0 0.02)" style="stroke:#000;stroke-miterlimit:10;stroke-width:0.75px"/><path d="M150.3,133.62a2,2,0,0,1-1.26,2.52,3.5,3.5,0,0,1-.79.11h0a2.68,2.68,0,0,1-1.4-.4,3.6,3.6,0,0,1-1.16-1.26,9.68,9.68,0,0,1-.75-4.32,3.12,3.12,0,0,0-.43-1.55,3.33,3.33,0,0,0-1.08-1,7,7,0,0,0-2-.86h-4.25v7.76a2,2,0,0,1-4,0v-21.2a2,2,0,0,1,2-2h6.44a7.7,7.7,0,0,1,4.9,13.64,5.69,5.69,0,0,1,1.26,1.33,6.83,6.83,0,0,1,1.18,3.89,9.42,9.42,0,0,0,.15,2.12A2,2,0,0,1,150.3,133.62Zm-5-14.47a3.71,3.71,0,0,0-3.68-3.74h-4.46v7.41h4.43a3.7,3.7,0,0,0,3.67-3.64Z" transform="translate(0 0.02)" style="stroke:#000;stroke-miterlimit:10;stroke-width:0.75px"/><path d="M156.13,134.62v-21.2a2,2,0,0,1,2-2H169.9a2,2,0,0,1,0,4h-9.75V122h8.38a2,2,0,0,1,0,4h-8.38v6.62h9.75a2,2,0,0,1,0,4H158.12A2,2,0,0,1,156.13,134.62Z" transform="translate(0 0.02)" style="stroke:#000;stroke-miterlimit:10;stroke-width:0.75px"/><path d="M210,113.42v21.2a2,2,0,0,1-4,0V119.5l-5.18,7.2a2,2,0,0,1-1.62.83h-.07a2,2,0,0,1-1.66-.83l-5.15-7.2v15.12a2,2,0,0,1-4,0v-21.2a2,2,0,0,1,2-2h.11a2,2,0,0,1,1.58.83l7.16,9.93,7.17-9.93a2,2,0,0,1,1.62-.83h0A2.05,2.05,0,0,1,210,113.42Z" transform="translate(0 0.02)" style="stroke:#000;stroke-miterlimit:10;stroke-width:0.75px"/><path d="M218.91,113.42a2,2,0,1,1,4,0v21.2a2,2,0,0,1-4,0Z" transform="translate(0 0.02)" style="stroke:#000;stroke-miterlimit:10;stroke-width:0.75px"/></svg>