<svg id="Capa_1" data-name="Capa 1" xmlns="http://www.w3.org/2000/svg" xmlns:xlink="http://www.w3.org/1999/xlink" viewBox="0 0 1003 672">
  <title>Mesa de trabajo 1</title>
  <image width="566" height="651" transform="translate(-0.5) scale(1.77 1.03)" xlink:href="Mesa%20de%20trabajo%2011.png"/>
  <image width="577" height="433" transform="translate(314.5 45) scale(1.4 1.45)" xlink:href="../../../../../Downloads/Snapseed__2_-removebg-preview.png"/>
  <g>
    <path d="M193.33,308.54a4.08,4.08,0,0,1,1.18,3v39.93a4,4,0,0,1-1.25,3,4.43,4.43,0,0,1-3.21,1.21,4.17,4.17,0,0,1-3-1.21,4,4,0,0,1-1.25-3v-16.1H163.56v16.1a3.89,3.89,0,0,1-1.32,3,4.42,4.42,0,0,1-3.07,1.21,4.19,4.19,0,0,1-3.1-1.21,4,4,0,0,1-1.22-3V311.58a4,4,0,0,1,1.25-3,4.47,4.47,0,0,1,3.21-1.21,4.21,4.21,0,0,1,3,1.21,4,4,0,0,1,1.25,3v15.89H185.8V311.58a3.92,3.92,0,0,1,1.32-3,4.46,4.46,0,0,1,3.07-1.21A4.25,4.25,0,0,1,193.33,308.54Z"/>
    <path d="M246.8,344.08a23.42,23.42,0,0,1-8.47,9,24,24,0,0,1-24.33,0,23.05,23.05,0,0,1-8.44-9,27.46,27.46,0,0,1,0-25.08,23,23,0,0,1,8.44-9,23.95,23.95,0,0,1,24.33,0,23.39,23.39,0,0,1,8.47,9,27.22,27.22,0,0,1,0,25.08Zm-7.88-20.93a15.2,15.2,0,0,0-5.23-6,14.06,14.06,0,0,0-15.09,0,14.6,14.6,0,0,0-5.16,6,20.13,20.13,0,0,0,0,16.86,14.63,14.63,0,0,0,5.16,6,13.44,13.44,0,0,0,7.56,2.17,13.3,13.3,0,0,0,7.53-2.21,15.1,15.1,0,0,0,5.23-6,19.68,19.68,0,0,0,0-16.79Z"/>
    <path d="M287.82,348.78a3.85,3.85,0,0,1,1.22,2.94,3.76,3.76,0,0,1-1.22,2.86,4.26,4.26,0,0,1-3,1.14H262.13a4.11,4.11,0,0,1-3-1.21,4,4,0,0,1-1.22-3V311.58a4,4,0,0,1,1.25-3,4.47,4.47,0,0,1,3.21-1.21,4.21,4.21,0,0,1,3,1.21,4,4,0,0,1,1.25,3v36.06h18.2A4.26,4.26,0,0,1,287.82,348.78Z"/>
    <path d="M335.68,352a3.9,3.9,0,0,1-1.19,2.94,3.82,3.82,0,0,1-2.72,1.14,3.71,3.71,0,0,1-2.26-.76,4.93,4.93,0,0,1-1.57-2.07l-3.63-8.36H303.54l-3.63,8.42a4.19,4.19,0,0,1-1.49,2,3.68,3.68,0,0,1-2.2.73,3.63,3.63,0,0,1-2.75-1,3.59,3.59,0,0,1-1-2.62,4.53,4.53,0,0,1,.21-1.32l17.36-41.31a4.52,4.52,0,0,1,1.68-2.14,3.59,3.59,0,0,1,2.5-.62,4.14,4.14,0,0,1,3.91,2.76l17.15,40.48A4.71,4.71,0,0,1,335.68,352ZM307,336.93H320.9l-7-16.17Z"/>
    <path d="M350.31,359.18a14.84,14.84,0,0,1-3.06,4.21,5.66,5.66,0,0,1-3.91,1.8,4.08,4.08,0,0,1-2.44-.66,2.44,2.44,0,0,1-.9-2.11,1.87,1.87,0,0,1,.56-1.55,3.62,3.62,0,0,1,1.22-.66,6.79,6.79,0,0,0,.94-.34,3.11,3.11,0,0,0,1.95-2.77,1.72,1.72,0,0,0-.73-1.34,3,3,0,0,0-1.92-.59,3.61,3.61,0,0,0-1.95.48,3.15,3.15,0,0,1-1.29-.89,2.55,2.55,0,0,1-.46-1.66,3.88,3.88,0,0,1,1.05-2.59,7.83,7.83,0,0,1,2.58-1.94,7,7,0,0,1,3-.72,6.21,6.21,0,0,1,4.81,1.9,7.73,7.73,0,0,1,1.74,5.42A9.69,9.69,0,0,1,350.31,359.18Z"/>
    <path d="M63.49,438.07a20.61,20.61,0,0,1-7.32-4.21,4.85,4.85,0,0,1-1.88-3.66,4.08,4.08,0,0,1,4-4,3.74,3.74,0,0,1,2.37.83,20.52,20.52,0,0,0,5.44,3.32,17.24,17.24,0,0,0,6.27,1,12.64,12.64,0,0,0,6.73-1.72Q82,427.93,82,425.36a5.5,5.5,0,0,0-2.78-4.87q-2.79-1.75-8.86-2.66-15.27-2.2-15.26-14.09a12.62,12.62,0,0,1,2.3-7.57,14.48,14.48,0,0,1,6.27-4.9,22.34,22.34,0,0,1,8.85-1.69,25.4,25.4,0,0,1,8.26,1.31,20.14,20.14,0,0,1,6.45,3.45,4.59,4.59,0,0,1,2,3.66A3.87,3.87,0,0,1,88,400.8,3.77,3.77,0,0,1,85.24,402a3.1,3.1,0,0,1-1.88-.62,18.59,18.59,0,0,0-5.06-2.66,16.78,16.78,0,0,0-5.82-1.21,12.08,12.08,0,0,0-6.79,1.62,5.13,5.13,0,0,0,.07,8.74,23.34,23.34,0,0,0,7.77,2.49A40.52,40.52,0,0,1,83.11,413a12.22,12.22,0,0,1,5.41,4.42,13.57,13.57,0,0,1,1.81,7.43,12.31,12.31,0,0,1-2.48,7.63,15.92,15.92,0,0,1-6.58,5.05,22.38,22.38,0,0,1-8.86,1.76A29.34,29.34,0,0,1,63.49,438.07Z"/>
    <path d="M140.17,427a23.32,23.32,0,0,1-8.47,9,23.95,23.95,0,0,1-24.33,0,23.07,23.07,0,0,1-8.43-9,27.46,27.46,0,0,1,0-25.08,23.1,23.1,0,0,1,8.43-9,24,24,0,0,1,24.33,0,23.35,23.35,0,0,1,8.47,9,27.15,27.15,0,0,1,0,25.08Zm-7.88-20.94a15,15,0,0,0-5.22-6,13.3,13.3,0,0,0-7.53-2.21A13.48,13.48,0,0,0,112,400a14.78,14.78,0,0,0-5.16,6,20.23,20.23,0,0,0,0,16.86,14.75,14.75,0,0,0,5.16,6,14.08,14.08,0,0,0,15.1,0,15.1,15.1,0,0,0,5.22-6,19.59,19.59,0,0,0,0-16.79Z"/>
    <path d="M184,396.9l-14.57,20.66v16.85a4.13,4.13,0,0,1-1.18,3,3.89,3.89,0,0,1-2.86,1.21,4.15,4.15,0,0,1-4.18-4.22V416.59l-14.5-19.07a5.39,5.39,0,0,1-1.26-3.25,3.78,3.78,0,0,1,1.43-3,4.6,4.6,0,0,1,3-1.21,4.24,4.24,0,0,1,3.42,1.93l12.27,16.79,11.5-16.65a4.23,4.23,0,0,1,3.49-2.07,4,4,0,0,1,2.92,1.24,4.12,4.12,0,0,1,1.26,3A4.6,4.6,0,0,1,184,396.9Z"/>
    <path d="M249.13,434.9a3.93,3.93,0,0,1-1.18,2.93,3.83,3.83,0,0,1-2.72,1.14,3.65,3.65,0,0,1-2.27-.76,4.88,4.88,0,0,1-1.57-2.07l-3.62-8.36H217l-3.62,8.43a4.37,4.37,0,0,1-1.5,2,3.71,3.71,0,0,1-2.2.72,3.64,3.64,0,0,1-2.75-1,3.56,3.56,0,0,1-.94-2.62,4.52,4.52,0,0,1,.21-1.31l17.36-41.32a4.61,4.61,0,0,1,1.67-2.14,3.72,3.72,0,0,1,2.51-.62,4.14,4.14,0,0,1,3.9,2.76l17.15,40.49A4.67,4.67,0,0,1,249.13,434.9Zm-28.72-15.07h13.94l-7-16.16Z"/>
    <path d="M294.79,391.37a3.86,3.86,0,0,1,1,2.76v40.28a4.09,4.09,0,0,1-1.22,3,4.19,4.19,0,0,1-3,1.21,6.21,6.21,0,0,1-1.91-.31,2.72,2.72,0,0,1-1.36-.87l-25.59-32.19v29.5a3.75,3.75,0,0,1-3.9,3.87,3.57,3.57,0,0,1-2.72-1.11,3.84,3.84,0,0,1-1-2.76V394.48a4,4,0,0,1,1.21-3,4.15,4.15,0,0,1,3-1.21,5.28,5.28,0,0,1,2.05.41,3.29,3.29,0,0,1,1.5,1.11l25.38,32V394.13a3.8,3.8,0,0,1,1.08-2.76,3.71,3.71,0,0,1,2.75-1.1A3.59,3.59,0,0,1,294.79,391.37Z"/>
    <path d="M345.26,413.72a4.14,4.14,0,0,1,1.19,3v14.64a4.13,4.13,0,0,1-2.17,3.73,28,28,0,0,1-15,4.22,25.59,25.59,0,0,1-22-12.4,24.44,24.44,0,0,1,0-24.94,25.59,25.59,0,0,1,22-12.4,24.8,24.8,0,0,1,12,2.76,3.73,3.73,0,0,1,2.09,3.38,4.37,4.37,0,0,1-1.15,3A3.67,3.67,0,0,1,339.4,400a5.94,5.94,0,0,1-2.3-.55,19.86,19.86,0,0,0-7.8-1.59,15.83,15.83,0,0,0-8.23,2.24,16.54,16.54,0,0,0-6,6.05,16.72,16.72,0,0,0,0,16.58,16.52,16.52,0,0,0,6,6A15.74,15.74,0,0,0,329.3,431a27.49,27.49,0,0,0,4.18-.35,24,24,0,0,0,3.9-.9v-9h-6.55a4.2,4.2,0,0,1-3-1.17,4.23,4.23,0,0,1,0-5.94,4.16,4.16,0,0,1,3-1.18h11.43A4,4,0,0,1,345.26,413.72Z"/>
    <path d="M385.45,431.89a3.85,3.85,0,0,1,1.22,2.8,3.65,3.65,0,0,1-1.22,2.83,4.34,4.34,0,0,1-3,1.11H359.06a4.15,4.15,0,0,1-3-1.21,4.09,4.09,0,0,1-1.22-3V394.48a4,4,0,0,1,1.22-3,4.11,4.11,0,0,1,3-1.21h23.36a4.27,4.27,0,0,1,3,1.14,3.85,3.85,0,0,1,1.22,2.93,3.6,3.6,0,0,1-1.19,2.8,4.41,4.41,0,0,1-3.06,1.07h-18.9V410h15.76a4.26,4.26,0,0,1,3,1.14,3.83,3.83,0,0,1,1.22,2.93,3.59,3.59,0,0,1-1.18,2.8,4.43,4.43,0,0,1-3.07,1.07H363.52v12.78h18.9A4.16,4.16,0,0,1,385.45,431.89Z"/>
    <path d="M424.63,431.68a3.85,3.85,0,0,1,1.22,2.94,3.78,3.78,0,0,1-1.22,2.87,4.3,4.3,0,0,1-3,1.14H398.94a4.19,4.19,0,0,1-3-1.21,4.08,4.08,0,0,1-1.21-3V394.48a4,4,0,0,1,1.25-3,4.42,4.42,0,0,1,3.21-1.21,4.13,4.13,0,0,1,3,1.21,4,4,0,0,1,1.26,3v36.06h18.19A4.3,4.3,0,0,1,424.63,431.68Z"/>
    <path d="M472.48,434.9a3.89,3.89,0,0,1-1.18,2.93,3.82,3.82,0,0,1-2.72,1.14,3.67,3.67,0,0,1-2.27-.76,5,5,0,0,1-1.57-2.07l-3.62-8.36H440.35l-3.63,8.43a4.24,4.24,0,0,1-1.5,2,4.06,4.06,0,0,1-5-.25,3.61,3.61,0,0,1-.94-2.62,4.52,4.52,0,0,1,.21-1.31l17.36-41.32a4.61,4.61,0,0,1,1.67-2.14,3.72,3.72,0,0,1,2.51-.62,4.14,4.14,0,0,1,2.34.72,4.18,4.18,0,0,1,1.57,2l17.14,40.49A4.46,4.46,0,0,1,472.48,434.9Zm-28.72-15.07H457.7l-7-16.16Z"/>
  </g>
  <rect id="_Sector_" data-name="&lt;Sector&gt;" x="-0.5" width="1002" height="668" style="fill: none"/>
</svg>
