<svg xmlns="http://www.w3.org/2000/svg" xmlns:xlink="http://www.w3.org/1999/xlink" viewBox="0 0 287.1 235.27"><defs><style>.cls-1,.cls-8{fill:none;}.cls-2{fill:#368789;stroke:#ebf2f2;opacity:0.82;}.cls-2,.cls-3,.cls-4,.cls-5,.cls-6,.cls-8,.cls-9{stroke-miterlimit:10;stroke-width:0.75px;}.cls-3{fill:#1c5257;stroke:#f9f9f9;}.cls-4{fill:#3397a0;stroke:#f2f7f7;}.cls-5{fill:#020202;}.cls-5,.cls-9{stroke:#000;}.cls-6{fill:#1d4e51;stroke:#dce2e2;opacity:0.76;}.cls-7{clip-path:url(#clip-path);}.cls-8{stroke:#fff;}</style><clipPath id="clip-path"><path id="SVGID" class="cls-1" d="M220.34,204.64c23.39-22.82,29.2-49.84,30.85-60.57,1-6.3,7.72-56.33-29.71-93.43C179.27,8.81,120.92,23.11,116.84,24.19c-7.69,2-45.89,13-67.73,52.06-3.25,5.8-23.44,43.36-8.21,86.89,10.42,29.78,31.55,45.62,38.3,50.54a108.07,108.07,0,0,0,19.72,11.16c8.22,3.61,34.06,14.52,67,8A109.34,109.34,0,0,0,220.34,204.64Z"/></clipPath></defs><title>Recurso 3</title><g id="Capa_2" data-name="Capa 2"><g id="trazado"><path class="cls-2" d="M183.93,34.67c-.33-1.25,1.32-2.46,4.6-5.9,1.92-2,3.4-3.74,4.35-4.88a48.52,48.52,0,0,1,11.19-9.56,51.91,51.91,0,0,1,18.1-6.71,45.75,45.75,0,0,1,37.83,9,48.22,48.22,0,0,1,14.24,17.9A49.88,49.88,0,0,1,278.31,57a43.67,43.67,0,0,1-5.7,20.75A39.5,39.5,0,0,1,262,90a91,91,0,0,0-7.71,5.85,32.6,32.6,0,0,0-5.28,5.22c-2.55,3.34-3.21,6-4.09,5.81s-.87-2.38-1.22-4.68c-.46-3-1.59-5.71-3.87-11.18-4-9.55-10.55-18.17-13-21.36a128.55,128.55,0,0,0-14.24-15.46c-3.35-3.18-9.82-9.32-16.27-13a72.29,72.29,0,0,0-7.93-4.27C185.8,36,184.23,35.77,183.93,34.67Z"/><path class="cls-3" d="M142,3.8a8.27,8.27,0,0,0,0,8.75,8.09,8.09,0,0,0,5.49,3.86c4.26.66,7.12-2.78,7.33-3.05a8.47,8.47,0,0,0,1.42-7.72A8.27,8.27,0,0,0,151.14.75,8.18,8.18,0,0,0,142,3.8Z"/><path class="cls-4" d="M263.19,112.58c-3.12,4.38-2.23,9.71,0,13.21a12.87,12.87,0,0,0,8.82,5.84c6.82,1,11.41-4.21,11.75-4.61s4.58-5.56,2.29-11.68c-2.05-5.44-7.56-7.19-8.17-7.37C272.8,106.45,266.49,108,263.19,112.58Z"/><path class="cls-5" d="M57.06,64.54c-.94-1.88-10.9,1.33-12.4,1.81a56.06,56.06,0,0,0-9.46,3.83A61.64,61.64,0,0,0,18.09,83.66,64.55,64.55,0,0,0,6,101.31,64,64,0,0,0,9,159.53s9.14,15.63,25.52,24.18c2.73,1.42,6.2,2.65,13.14,5.1,4.83,1.71,6.89,2.26,7.45,1.49.73-1-1.6-3.7-3.6-6.44,0,0-2.33-3.2-8.37-16.3-5.63-12.19-6.67-26.59-7-30.47A108.51,108.51,0,0,1,51.43,74.37a44.7,44.7,0,0,1,3.47-6C56.65,65.78,57.34,65.1,57.06,64.54Z"/><path class="cls-6" d="M65.78,56.37c-1,.27-2.52-2.41-2.84-2.95a14.52,14.52,0,0,1-2.36-5.84,12.7,12.7,0,0,1,.16-4.15,13.83,13.83,0,0,1,2.09-4.91A13.48,13.48,0,0,1,70,33c5.37-1.6,9.87,1.1,11.6,2.13,2.63,1.58,5.16,4.11,4.71,5-.07.15-.2.16-.89.55-.3.17-.84.52-1.92,1.22-3,1.93-5.77,4-5.77,4A92.9,92.9,0,0,0,70,52.27c-.46.46-1.24,1.29-2.24,2.17a15.2,15.2,0,0,0-1.14,1.05C66,56.14,66,56.31,65.78,56.37Z"/><path class="cls-8" d="M220.34,204.64c23.39-22.82,29.2-49.84,30.85-60.57,1-6.3,7.72-56.33-29.71-93.43C179.27,8.81,120.92,23.11,116.84,24.19c-7.69,2-45.89,13-67.73,52.06-3.25,5.8-23.44,43.36-8.21,86.89,10.42,29.78,31.55,45.62,38.3,50.54a108.07,108.07,0,0,0,19.72,11.16c8.22,3.61,34.06,14.52,67,8A109.34,109.34,0,0,0,220.34,204.64Z"/><path class="cls-9" d="M58.1,130.38a1.88,1.88,0,0,1,2.63-.25,11.8,11.8,0,0,0,6.87,2.77,7.77,7.77,0,0,0,4.5-1.33,3.27,3.27,0,0,0,1.55-2.6,2.11,2.11,0,0,0-.32-1.15,3.44,3.44,0,0,0-1.08-1.08,14.64,14.64,0,0,0-4.94-1.69h-.07a19.69,19.69,0,0,1-4.64-1.4,7.74,7.74,0,0,1-3.35-2.81,5.51,5.51,0,0,1-.83-3,6.68,6.68,0,0,1,2.88-5.26,10.7,10.7,0,0,1,6.23-1.91c3.46,0,6,1.7,7.85,2.88a1.85,1.85,0,0,1,.5,2.56,1.81,1.81,0,0,1-2.55.54c-1.84-1.22-3.6-2.3-5.8-2.3a6.86,6.86,0,0,0-4,1.22,2.87,2.87,0,0,0-1.37,2.27,1.76,1.76,0,0,0,.25,1,3.54,3.54,0,0,0,1,.93,12.28,12.28,0,0,0,4.49,1.59h.08a20.92,20.92,0,0,1,5,1.51,8.34,8.34,0,0,1,3.6,3,5.87,5.87,0,0,1,.87,3.06,7,7,0,0,1-3.1,5.58,11.22,11.22,0,0,1-6.66,2.06,15.51,15.51,0,0,1-9.21-3.6A1.92,1.92,0,0,1,58.1,130.38Z"/><path class="cls-9" d="M102.77,114.58a13.21,13.21,0,0,1,0,18.21,11.78,11.78,0,0,1-8.6,3.85,12.15,12.15,0,0,1-8.82-3.85,13.42,13.42,0,0,1,0-18.21,12,12,0,0,1,8.82-3.86A11.64,11.64,0,0,1,102.77,114.58Zm-.47,9.1a9.38,9.38,0,0,0-2.44-6.3,7.78,7.78,0,0,0-11.52,0,9.19,9.19,0,0,0-2.45,6.3A9,9,0,0,0,88.34,130a7.7,7.7,0,0,0,11.52,0A9.2,9.2,0,0,0,102.3,123.68Z"/><path class="cls-9" d="M112.24,134.66V113.42a2,2,0,0,1,2-2h5.11a6.85,6.85,0,0,1,5.48,11,7.71,7.71,0,0,1-4.07,14.25h-6.37s0,0,0,0-.07,0-.11,0A2,2,0,0,1,112.24,134.66Zm4-13.46h3.09a2.89,2.89,0,0,0,2.85-2.92,2.83,2.83,0,0,0-2.85-2.84h-3.09Zm0,11.45h4.5a3.73,3.73,0,0,0,0-7.46h-4.5Z"/><path class="cls-9" d="M150.29,133.65a2,2,0,0,1-1.26,2.52,2.92,2.92,0,0,1-.79.11h0a2.67,2.67,0,0,1-1.41-.39,3.58,3.58,0,0,1-1.15-1.26,9.74,9.74,0,0,1-.76-4.32,3,3,0,0,0-.43-1.55,3.3,3.3,0,0,0-1.08-1,6.83,6.83,0,0,0-2-.86h-4.25v7.81a2,2,0,0,1-2,2,2,2,0,0,1-2-2V113.42a2,2,0,0,1,2-2h6.45a7.7,7.7,0,0,1,4.89,13.65,5.53,5.53,0,0,1,1.26,1.33,6.8,6.8,0,0,1,1.19,3.89,9,9,0,0,0,.14,2.12A1.92,1.92,0,0,1,150.29,133.65Zm-5-14.47a3.71,3.71,0,0,0-3.7-3.74h-4.43v7.42h4.43A3.69,3.69,0,0,0,145.25,119.18Z"/><path class="cls-9" d="M156.13,134.66V113.42a2,2,0,0,1,2-2h11.77a2,2,0,0,1,2,2,2,2,0,0,1-2,2h-9.76V122h8.39a2,2,0,0,1,0,4h-8.39v6.63h9.76a2,2,0,0,1,0,4H158.21c-.07,0-.07,0-.07,0l0,0A2,2,0,0,1,156.13,134.66Z"/><path class="cls-9" d="M209.94,113.42v21.24a2,2,0,0,1-2,2,2,2,0,0,1-2-2V119.51l-5.18,7.2a2,2,0,0,1-1.62.82h-.08a2,2,0,0,1-1.65-.82l-5.15-7.2v15.15a2,2,0,0,1-4,0V113.42a2,2,0,0,1,2-2h.11a2,2,0,0,1,1.59.83l7.16,9.94,7.16-9.94a2,2,0,0,1,1.62-.83h0A2.05,2.05,0,0,1,209.94,113.42Z"/><path class="cls-9" d="M218.91,113.42a2,2,0,0,1,2-2,2,2,0,0,1,2,2v21.24a2,2,0,0,1-2,2,2,2,0,0,1-2-2Z"/></g></g></svg>