<svg xmlns="http://www.w3.org/2000/svg" xmlns:xlink="http://www.w3.org/1999/xlink" viewBox="0 0 287.1 235.27">
  <defs>
    <clipPath id="clip-path">
      <path id="SVGID" d="M220.34,204.64c23.39-22.82,29.2-49.84,30.85-60.57,1-6.3,7.72-56.33-29.71-93.43C179.27,8.81,120.92,23.11,116.84,24.19c-7.69,2-45.89,13-67.73,52.06-3.25,5.8-23.44,43.36-8.21,86.89,10.42,29.78,31.55,45.62,38.3,50.54a108.07,108.07,0,0,0,19.72,11.16c8.22,3.61,34.06,14.52,67,8A109.34,109.34,0,0,0,220.34,204.64Z" style="fill: none"/>
    </clipPath>
  </defs>
  <title>Recurso 4</title>
  <g id="Capa_2" data-name="Capa 2">
    <g id="trazado">
      <path d="M190.59,33.09c-.36-1.08,1.11-2.2,4-5.33,1.69-1.83,3-3.4,3.8-4.44a44.37,44.37,0,0,1,9.91-8.79,49.39,49.39,0,0,1,16.38-6.61,46,46,0,0,1,18.91-.51,45,45,0,0,1,16.24,6.71,42.52,42.52,0,0,1,13.81,15,41.67,41.67,0,0,1,4.64,19.5,36.43,36.43,0,0,1-4.42,18.31A34.86,34.86,0,0,1,264.62,78a83.69,83.69,0,0,0-6.85,5.42,29.12,29.12,0,0,0-4.66,4.77c-2.2,3-2.71,5.34-3.53,5.24s-.89-2-1.3-4c-.54-2.57-1.7-4.9-4-9.58-4-8.15-10.44-15.38-12.83-18.05a113.34,113.34,0,0,0-13.71-12.87c-3.21-2.63-9.4-7.71-15.48-10.65a70,70,0,0,0-7.46-3.39C192.36,34.14,190.91,34,190.59,33.09Z" style="fill: #368789;stroke: #ebf2f2;stroke-miterlimit: 10;stroke-width: 0.6719698458909988px;opacity: 0.8200000000000001"/>
      <path d="M142,3.8a8.27,8.27,0,0,0,0,8.75,8.09,8.09,0,0,0,5.49,3.86c4.26.66,7.12-2.78,7.33-3.05a8.47,8.47,0,0,0,1.42-7.72A8.27,8.27,0,0,0,151.14.75,8.18,8.18,0,0,0,142,3.8Z" style="fill: #1c5257;stroke: #f9f9f9;stroke-miterlimit: 10;stroke-width: 0.75px"/>
      <path d="M263.19,112.58c-3.12,4.38-2.23,9.71,0,13.21a12.87,12.87,0,0,0,8.82,5.84c6.82,1,11.41-4.21,11.75-4.61s4.58-5.56,2.29-11.68c-2.05-5.44-7.56-7.19-8.17-7.37C272.8,106.45,266.49,108,263.19,112.58Z" style="fill: #3397a0;stroke: #f2f7f7;stroke-miterlimit: 10;stroke-width: 0.75px"/>
      <path d="M57.06,64.54c-.94-1.88-10.9,1.33-12.4,1.81a56.06,56.06,0,0,0-9.46,3.83A61.64,61.64,0,0,0,18.09,83.66,64.55,64.55,0,0,0,6,101.31,64,64,0,0,0,9,159.53s9.14,15.63,25.52,24.18c2.73,1.42,6.2,2.65,13.14,5.1,4.83,1.71,6.89,2.26,7.45,1.49.73-1-1.6-3.7-3.6-6.44,0,0-2.33-3.2-8.37-16.3-5.63-12.19-6.67-26.59-7-30.47A108.51,108.51,0,0,1,51.43,74.37a44.7,44.7,0,0,1,3.47-6C56.65,65.78,57.34,65.1,57.06,64.54Z" style="fill: #020202;stroke: #000;stroke-miterlimit: 10;stroke-width: 0.75px"/>
      <path d="M65.78,56.37c-1,.27-2.52-2.41-2.84-2.95a14.52,14.52,0,0,1-2.36-5.84,12.7,12.7,0,0,1,.16-4.15,13.83,13.83,0,0,1,2.09-4.91A13.48,13.48,0,0,1,70,33c5.37-1.6,9.87,1.1,11.6,2.13,2.63,1.58,5.16,4.11,4.71,5-.07.15-.2.16-.89.55-.3.17-.84.52-1.92,1.22-3,1.93-5.77,4-5.77,4A92.9,92.9,0,0,0,70,52.27c-.46.46-1.24,1.29-2.24,2.17a15.2,15.2,0,0,0-1.14,1.05C66,56.14,66,56.31,65.78,56.37Z" style="fill: #1d4e51;stroke: #dce2e2;stroke-miterlimit: 10;stroke-width: 0.75px;opacity: 0.76"/>
      <path d="M220.34,204.64c23.39-22.82,29.2-49.84,30.85-60.57,1-6.3,7.72-56.33-29.71-93.43C179.27,8.81,120.92,23.11,116.84,24.19c-7.69,2-45.89,13-67.73,52.06-3.25,5.8-23.44,43.36-8.21,86.89,10.42,29.78,31.55,45.62,38.3,50.54a108.07,108.07,0,0,0,19.72,11.16c8.22,3.61,34.06,14.52,67,8A109.34,109.34,0,0,0,220.34,204.64Z" style="fill: none;stroke: #fff;stroke-miterlimit: 10;stroke-width: 0.75px"/>
      <text transform="translate(55.15 136.64)" style="font-size: 36px;stroke: #000;stroke-miterlimit: 10;stroke-width: 0.75px;font-family: QuicksandBold-Regular, Quicksand">S<tspan x="24.01" y="0" style="letter-spacing: -0.034993489583333336em">O</tspan><tspan x="53.35" y="0">BRE MI</tspan></text>
    </g>
  </g>
</svg>
